<svg width="22" height="22" viewBox="0 0 22 22" fill="none" xmlns="http://www.w3.org/2000/svg">
<path fill-rule="evenodd" clip-rule="evenodd" d="M21.5 11C21.5 5.20101 16.799 0.5 11 0.5C5.20101 0.5 0.5 5.20101 0.5 11C0.5 16.799 5.20101 21.5 11 21.5C16.799 21.5 21.5 16.799 21.5 11ZM2 11C2 6.02944 6.02944 2 11 2C15.9706 2 20 6.02944 20 11C20 15.9706 15.9706 20 11 20C6.02944 20 2 15.9706 2 11ZM11 5.83333C11.3846 5.83333 11.7016 6.12286 11.745 6.49587L11.75 6.58333V13.3333C11.75 13.7475 11.4142 14.0833 11 14.0833C10.6154 14.0833 10.2984 13.7938 10.255 13.4208L10.25 13.3333V6.58333C10.25 6.16912 10.5858 5.83333 11 5.83333ZM11 17.0833C11.4142 17.0833 11.75 16.7475 11.75 16.3333C11.75 15.9191 11.4142 15.5833 11 15.5833C10.5858 15.5833 10.25 15.9191 10.25 16.3333C10.25 16.7475 10.5858 17.0833 11 17.0833Z" fill="#373739"/>
</svg>
