<?xml version="1.0" encoding="UTF-8"?>
<svg version="1.1" xmlns="http://www.w3.org/2000/svg" width="512" height="512">
<path d="M0 0 C1.42944279 -0.0046229 2.8588808 -0.01098504 4.2883091 -0.01890898 C8.17053694 -0.03543518 12.05236585 -0.02743328 15.93459415 -0.0149641 C20.13918165 -0.00584656 24.34370451 -0.01991629 28.54827881 -0.03088379 C36.76697238 -0.04860262 44.98551924 -0.04485877 53.20421839 -0.03323323 C59.88804985 -0.02417292 66.57184041 -0.0229861 73.25567627 -0.02732849 C74.20958807 -0.02794142 75.16349986 -0.02855436 76.14631808 -0.02918586 C78.08461111 -0.03046486 80.02290413 -0.03176171 81.96119714 -0.03307623 C100.1056206 -0.04446258 118.24996301 -0.0313989 136.39437318 -0.00987476 C151.9385745 0.00799444 167.4826563 0.00488979 183.02685547 -0.0135498 C201.10957237 -0.03499094 219.19221837 -0.04336413 237.27494621 -0.03110075 C239.20581944 -0.02982665 241.13669267 -0.02856917 243.06756592 -0.02732849 C244.4923359 -0.02640284 244.4923359 -0.02640284 245.94588912 -0.02545848 C252.61606345 -0.02201531 259.28619254 -0.0278116 265.95635986 -0.0372467 C274.09314586 -0.04850418 282.22977766 -0.04534823 290.36654615 -0.02412373 C294.51229042 -0.01366351 298.65777825 -0.00940479 302.8035202 -0.02272034 C306.60835436 -0.03475545 310.4126976 -0.02790173 314.21748805 -0.00681013 C316.22480459 -0.00031835 318.232156 -0.01317995 320.2394352 -0.02703905 C332.2795311 0.07541072 343.84284662 2.6220516 354.53662109 8.32043457 C355.20089111 8.66300293 355.86516113 9.00557129 356.54956055 9.35852051 C361.89413931 12.19172825 366.58900143 15.54814022 371.16162109 19.50793457 C372.35078125 20.40318848 372.35078125 20.40318848 373.56396484 21.31652832 C387.35948019 32.95454954 396.62561085 52.00915603 398.39490509 69.86183619 C398.76205916 76.19556962 398.70679049 82.53501249 398.67919922 88.87683105 C398.68463064 90.99099202 398.69175898 93.10514919 398.70043945 95.21929932 C398.71855543 100.91981258 398.71165366 106.62003377 398.69892311 112.32055163 C398.68873302 118.31214302 398.6982055 124.30371088 398.70446777 130.29530334 C398.71172732 140.35458829 398.70220156 150.41375544 398.68310547 160.47302246 C398.66134603 172.06845721 398.66838836 183.66361047 398.69041109 195.25903839 C398.70862049 205.25019073 398.71109622 215.24125882 398.70065641 225.23242241 C398.69445111 231.18406758 398.69350359 237.13558087 398.70680237 243.08721733 C398.71844094 248.68611053 398.71019005 254.28464437 398.68722534 259.88349915 C398.6819805 261.92634551 398.68337859 263.96922263 398.692276 266.01205635 C398.73531218 276.90570491 398.20039181 286.59204944 394.90245819 297.02520847 C393.79854892 302.2147618 394.82931009 306.22787045 396.26708984 311.32434082 C398.61948357 319.69639709 398.40437696 328.2645018 398.41162109 336.88293457 C398.41229584 337.60135529 398.41297058 338.319776 398.41366577 339.05996704 C398.39755483 349.8478235 397.89413031 360.01862501 395.16162109 370.50793457 C394.99533203 371.18211426 394.82904297 371.85629395 394.65771484 372.55090332 C385.24125103 410.28651017 360.61434267 442.01608685 327.48193359 462.0645752 C297.24092012 479.64444146 256.58734318 486.76062133 222.32080078 478.09875488 C198.71744339 471.64012475 177.87918754 461.38356684 159.16162109 445.50793457 C158.45392578 444.9227002 157.74623047 444.33746582 157.01708984 443.73449707 C152.23810628 439.69566201 148.11482034 435.35222381 144.16162109 430.50793457 C143.00146484 429.10414551 143.00146484 429.10414551 141.81787109 427.67199707 C125.52530844 407.51205607 111.16162109 378.94572134 111.16162109 352.50793457 C110.52607772 352.51162174 109.89053434 352.51530891 109.23573208 352.51910782 C93.70842994 352.60778532 78.18121697 352.67380186 62.65372372 352.71518326 C55.14446302 352.73573143 47.63537226 352.763702 40.1262207 352.80969238 C33.57451282 352.84979939 27.02292812 352.87542353 20.47110087 352.88428855 C17.00799798 352.88946337 13.54524724 352.90145989 10.08225822 352.9308548 C-7.17778068 353.07167358 -22.64767357 352.9899194 -38.21337891 344.69543457 C-38.87764893 344.35286621 -39.54191895 344.01029785 -40.22631836 343.65734863 C-45.57089712 340.82414089 -50.26575924 337.46772892 -54.83837891 333.50793457 C-55.63115234 332.91109863 -56.42392578 332.3142627 -57.24072266 331.69934082 C-71.03697133 320.06070096 -80.30830476 301.0006671 -82.0716629 283.14582253 C-82.43913493 276.77894494 -82.38353791 270.40630496 -82.35595703 264.03137207 C-82.36138833 261.90573652 -82.3685166 259.78010474 -82.37719727 257.65447998 C-82.39531361 251.92304363 -82.38841161 246.19189777 -82.37568092 240.46045685 C-82.36549236 234.43770108 -82.37496277 228.41496875 -82.38122559 222.39221191 C-82.38848501 212.28165258 -82.37895911 202.17121045 -82.35986328 192.06066895 C-82.33809794 180.40273075 -82.34515051 168.74507246 -82.3671689 157.08714104 C-82.38537156 147.0442002 -82.38785748 137.00134321 -82.37741423 126.95839119 C-82.37120601 120.97492007 -82.3702697 114.99158015 -82.38356018 109.00811768 C-82.39518907 103.38050099 -82.38696516 97.75324214 -82.36398315 92.12566376 C-82.35873348 90.07110943 -82.36014492 88.01652453 -82.36903381 85.96198273 C-82.42762774 71.03242918 -81.18613559 57.57010973 -74.02587891 44.13293457 C-73.51202637 43.13652954 -73.51202637 43.13652954 -72.98779297 42.11999512 C-70.15458522 36.77541636 -66.79817325 32.08055423 -62.83837891 27.50793457 C-62.24154297 26.71516113 -61.64470703 25.9223877 -61.02978516 25.10559082 C-46.04271551 7.34016958 -22.53867923 -0.15561656 0 0 Z M-38.08837891 49.82043457 C-49.91664537 63.65149516 -49.83837891 78.85662367 -49.83837891 96.50793457 C87.44162109 96.50793457 224.72162109 96.50793457 366.16162109 96.50793457 C366.16162109 75.90901866 365.52458674 61.23857206 351.06005859 46.34387207 C337.77883853 33.8135337 322.51871772 32.3518246 305.01837158 32.3742218 C303.71311736 32.37195625 302.40786314 32.36969069 301.06305575 32.36735648 C297.45997785 32.36126867 293.85692326 32.36136849 290.2538414 32.36255085 C286.36005042 32.36275563 282.46626678 32.35722882 278.57247925 32.35249329 C270.95125636 32.34420279 263.3300412 32.34143917 255.70881417 32.34088091 C249.51110317 32.34040499 243.31339471 32.33834649 237.11568451 32.33518028 C219.52670108 32.32637813 201.93772375 32.32176023 184.3487381 32.32251076 C183.40140355 32.32255071 182.454069 32.32259067 181.47802734 32.32263184 C180.05528158 32.32269316 180.05528158 32.32269316 178.60379347 32.32275572 C163.23573755 32.32316208 147.86770614 32.31359389 132.4996573 32.29949347 C116.70286451 32.28511455 100.90608366 32.27822412 85.10928416 32.27908725 C76.24741883 32.27941869 67.38557921 32.27669474 58.52371979 32.26590919 C50.97819747 32.25678424 43.4327125 32.2546453 35.88718703 32.26141862 C32.04153181 32.26467375 28.19594816 32.2647771 24.35029984 32.25606537 C20.17108132 32.2466958 15.99202711 32.25300261 11.81280518 32.26069641 C10.61170774 32.25555285 9.4106103 32.25040928 8.17311597 32.24510986 C-10.65914581 32.32141312 -24.94661488 35.8911491 -38.08837891 49.82043457 Z M-49.83837891 128.50793457 C-62.17172501 207.09493393 -62.17172501 207.09493393 -34.73681641 306.67199707 C-21.93487887 318.75015015 -7.33586328 320.6807529 9.55639648 320.62145996 C10.6598642 320.62160599 11.76333191 320.62175201 12.90023804 320.62190247 C16.51993834 320.62121003 20.13958612 320.61344914 23.75927734 320.60559082 C26.27990185 320.60372426 28.80052673 320.60230148 31.32115173 320.6013031 C37.26011811 320.59788498 43.19906785 320.59001666 49.1380257 320.57995361 C55.90472943 320.56873923 62.67143408 320.56326866 69.4381448 320.55825818 C83.3459805 320.54783246 97.25379978 320.53026635 111.16162109 320.50793457 C111.32308624 319.74632019 111.48455139 318.98470581 111.65090942 318.20001221 C112.39933581 314.69157443 113.15930836 311.18573053 113.91943359 307.67980957 C114.17313721 306.48210937 114.42684082 305.28440918 114.68823242 304.05041504 C120.92807728 275.4503149 135.47098061 252.00640192 156.16162109 231.50793457 C156.89638672 230.76414551 157.63115234 230.02035645 158.38818359 229.25402832 C183.60435159 204.98243991 219.12855862 193.03836793 253.66162109 193.13293457 C254.78479736 193.13375031 254.78479736 193.13375031 255.93066406 193.13458252 C268.06834373 193.17502851 279.45494657 194.08958561 291.16162109 197.50793457 C291.9228125 197.72224121 292.68400391 197.93654785 293.46826172 198.15734863 C320.68864107 205.98178404 342.64445098 221.34378644 362.16162109 241.50793457 C363.48162109 242.82793457 364.80162109 244.14793457 366.16162109 245.50793457 C366.16162109 206.89793457 366.16162109 168.28793457 366.16162109 128.50793457 C228.88162109 128.50793457 91.60162109 128.50793457 -49.83837891 128.50793457 Z M173.16162109 259.50793457 C172.42556641 260.23367676 171.68951172 260.95941895 170.93115234 261.70715332 C155.62425335 277.74731694 145.90847895 300.65792888 143.16162109 322.50793457 C143.02755859 323.51340332 142.89349609 324.51887207 142.75537109 325.55480957 C139.83078344 353.87013552 148.20711964 382.6021157 165.83642578 404.87902832 C185.23869538 428.72794924 211.94005597 444.3126267 242.62255859 447.91418457 C273.47427789 450.6237168 301.83708301 441.31329686 325.91162109 422.00793457 C327.67245957 420.5206727 329.42363621 419.02183964 331.16162109 417.50793457 C331.77521484 416.97941895 332.38880859 416.45090332 333.02099609 415.90637207 C347.31950249 402.62918756 356.9835798 384.08219632 362.16162109 365.50793457 C362.48130859 364.42125488 362.80099609 363.3345752 363.13037109 362.21496582 C367.37383475 345.14288288 367.2631886 324.36612193 362.16162109 307.50793457 C361.95762695 306.83262695 361.75363281 306.15731934 361.54345703 305.46154785 C352.45177997 276.07571247 333.15859951 252.29127437 306.16162109 237.50793457 C261.55484771 214.06062927 208.1362611 224.02842787 173.16162109 259.50793457 Z " fill="#000000" transform="translate(97.83837890625,15.4920654296875)"/>
<path d="M0 0 C4.96519463 2.30526893 7.39089701 5.24073974 10 10 C10.51769038 12.98030847 10.46847054 15.88103031 10.390625 18.8984375 C10.38496521 19.73339752 10.37930542 20.56835754 10.37347412 21.42861938 C10.35120223 24.07801266 10.30102523 26.72602016 10.25 29.375 C10.22992302 31.17836579 10.21167435 32.98175292 10.1953125 34.78515625 C10.15136786 39.19063269 10.08240601 43.59508194 10 48 C11.11971191 47.97905273 12.23942383 47.95810547 13.39306641 47.93652344 C17.56383377 47.86389574 21.73454568 47.81811789 25.90576172 47.78027344 C27.70794081 47.76020967 29.51005521 47.73295187 31.31201172 47.69824219 C33.90869136 47.64949171 36.50450729 47.62697918 39.1015625 47.609375 C40.30191635 47.57840729 40.30191635 47.57840729 41.52651978 47.54681396 C46.83916147 47.54470295 49.76422625 48.51659669 54 52 C57.62833663 55.81930172 58.31000458 58.88279006 58.5 64 C58.31000458 69.11720994 57.62833663 72.18069828 54 76 C48.94357099 80.15829141 45.36258981 80.55215211 39.1015625 80.390625 C38.26660248 80.38496521 37.43164246 80.37930542 36.57138062 80.37347412 C33.92198734 80.35120223 31.27397984 80.30102523 28.625 80.25 C26.82163421 80.22992302 25.01824708 80.21167435 23.21484375 80.1953125 C18.80936731 80.15136786 14.40491806 80.08240601 10 80 C10.0314209 81.67956787 10.0314209 81.67956787 10.06347656 83.39306641 C10.13610426 87.56383377 10.18188211 91.73454568 10.21972656 95.90576172 C10.23979033 97.70794081 10.26704813 99.51005521 10.30175781 101.31201172 C10.35050829 103.90869136 10.37302082 106.50450729 10.390625 109.1015625 C10.41127014 109.9017984 10.43191528 110.7020343 10.45318604 111.52651978 C10.45529705 116.83916147 9.48340331 119.76422625 6 124 C2.18069828 127.62833663 -0.88279006 128.31000458 -6 128.5 C-11.11720994 128.31000458 -14.18069828 127.62833663 -18 124 C-22.15829141 118.94357099 -22.55215211 115.36258981 -22.390625 109.1015625 C-22.38496521 108.26660248 -22.37930542 107.43164246 -22.37347412 106.57138062 C-22.35120223 103.92198734 -22.30102523 101.27397984 -22.25 98.625 C-22.22992302 96.82163421 -22.21167435 95.01824708 -22.1953125 93.21484375 C-22.15136786 88.80936731 -22.08240601 84.40491806 -22 80 C-23.67956787 80.0314209 -23.67956787 80.0314209 -25.39306641 80.06347656 C-29.56383377 80.13610426 -33.73454568 80.18188211 -37.90576172 80.21972656 C-39.70794081 80.23979033 -41.51005521 80.26704813 -43.31201172 80.30175781 C-45.90869136 80.35050829 -48.50450729 80.37302082 -51.1015625 80.390625 C-52.30191635 80.42159271 -52.30191635 80.42159271 -53.52651978 80.45318604 C-58.83916147 80.45529705 -61.76422625 79.48340331 -66 76 C-69.62833663 72.18069828 -70.31000458 69.11720994 -70.5 64 C-70.31000458 58.88279006 -69.62833663 55.81930172 -66 52 C-60.94357099 47.84170859 -57.36258981 47.44784789 -51.1015625 47.609375 C-50.26660248 47.61503479 -49.43164246 47.62069458 -48.57138062 47.62652588 C-45.92198734 47.64879777 -43.27397984 47.69897477 -40.625 47.75 C-38.82163421 47.77007698 -37.01824708 47.78832565 -35.21484375 47.8046875 C-30.80936731 47.84863214 -26.40491806 47.91759399 -22 48 C-22.02094727 46.88028809 -22.04189453 45.76057617 -22.06347656 44.60693359 C-22.13610426 40.43616623 -22.18188211 36.26545432 -22.21972656 32.09423828 C-22.23979033 30.29205919 -22.26704813 28.48994479 -22.30175781 26.68798828 C-22.35050829 24.09130864 -22.37302082 21.49549271 -22.390625 18.8984375 C-22.41127014 18.0982016 -22.43191528 17.2979657 -22.45318604 16.47348022 C-22.45529705 11.16083853 -21.48340331 8.23577375 -18 4 C-12.72867143 -1.00776214 -6.89190982 -0.92775709 0 0 Z " fill="#000000" transform="translate(358,288)"/>
<path d="M0 0 C0.73250977 -0.00700928 1.46501953 -0.01401855 2.21972656 -0.02124023 C4.62604382 -0.03875584 7.03117209 -0.02722142 9.4375 -0.01367188 C11.11849186 -0.01636866 12.79948221 -0.02025264 14.48046875 -0.02526855 C17.99754743 -0.03115485 21.5142188 -0.02262896 25.03125 -0.00390625 C29.53052189 0.01888312 34.02883927 0.00575532 38.52807617 -0.01819611 C41.99746847 -0.03267779 45.46663594 -0.02803731 48.93603516 -0.01768494 C50.59456496 -0.01502418 52.25311544 -0.01826444 53.91162109 -0.02760315 C56.23329421 -0.03780834 58.55344011 -0.02221466 60.875 0 C62.19371094 0.00318237 63.51242188 0.00636475 64.87109375 0.00964355 C70.16529367 0.76365389 73.1949097 3.20958834 76.8125 7.01757812 C79.21053575 12.18257821 79.19131535 16.91780692 78.4375 22.51757812 C76.12838725 27.49105174 73.16511365 29.84944159 68.4375 32.51757812 C64.87109375 33.0255127 64.87109375 33.0255127 60.875 33.03515625 C60.14249023 33.04216553 59.40998047 33.0491748 58.65527344 33.05639648 C56.24895618 33.07391209 53.84382791 33.06237767 51.4375 33.04882812 C49.75650814 33.05152491 48.07551779 33.05540889 46.39453125 33.0604248 C42.87745257 33.0663111 39.3607812 33.05778521 35.84375 33.0390625 C31.34447811 33.01627313 26.84616073 33.02940093 22.34692383 33.05335236 C18.87753153 33.06783404 15.40836406 33.06319356 11.93896484 33.05284119 C10.28043504 33.05018043 8.62188456 33.05342069 6.96337891 33.0627594 C4.64170579 33.07296459 2.32155989 33.05737091 0 33.03515625 C-1.31871094 33.03197388 -2.63742188 33.0287915 -3.99609375 33.0255127 C-9.29029367 32.27150236 -12.3199097 29.82556791 -15.9375 26.01757812 C-18.33553575 20.85257804 -18.31631535 16.11734933 -17.5625 10.51757812 C-13.97822937 2.79761062 -8.2761305 0.01997233 0 0 Z " fill="#000000" transform="translate(97.5625,207.482421875)"/>
</svg>
