<?xml version="1.0" encoding="UTF-8"?>
<svg version="1.1" xmlns="http://www.w3.org/2000/svg" width="512" height="512">
<path d="M0 0 C1.45108658 0.00273422 1.45108658 0.00273422 2.93148804 0.00552368 C17.26440977 0.05095174 31.21023917 0.55983928 45.3125 3.3125 C46.65803955 3.55395752 46.65803955 3.55395752 48.03076172 3.80029297 C107.84088904 14.62287989 165.35495829 48.68064457 202.3125 97.3125 C202.72918945 97.85277832 203.14587891 98.39305664 203.57519531 98.94970703 C211.2584873 108.9447116 218.00092968 119.40459036 224.3125 130.3125 C224.70679199 130.98974121 225.10108398 131.66698242 225.50732422 132.36474609 C238.68961173 155.2833756 247.29510918 180.85822563 252.625 206.6875 C252.77243652 207.39817627 252.91987305 208.10885254 253.07177734 208.84106445 C256.05713787 224.48358366 256.6873098 240.11919606 256.625 256 C256.62226578 257.45108658 256.62226578 257.45108658 256.61947632 258.93148804 C256.57404826 273.26440977 256.06516072 287.21023917 253.3125 301.3125 C253.15152832 302.20952637 252.99055664 303.10655273 252.82470703 304.03076172 C242.00212011 363.84088904 207.94435543 421.35495829 159.3125 458.3125 C158.77222168 458.72918945 158.23194336 459.14587891 157.67529297 459.57519531 C147.6802884 467.2584873 137.22040964 474.00092968 126.3125 480.3125 C125.63525879 480.70679199 124.95801758 481.10108398 124.26025391 481.50732422 C101.3416244 494.68961173 75.76677437 503.29510918 49.9375 508.625 C49.22682373 508.77243652 48.51614746 508.91987305 47.78393555 509.07177734 C32.14141634 512.05713787 16.50580394 512.6873098 0.625 512.625 C-0.34239105 512.62317719 -1.3097821 512.62135437 -2.30648804 512.61947632 C-16.63940977 512.57404826 -30.58523917 512.06516072 -44.6875 509.3125 C-45.58452637 509.15152832 -46.48155273 508.99055664 -47.40576172 508.82470703 C-107.21588904 498.00212011 -164.72995829 463.94435543 -201.6875 415.3125 C-202.10418945 414.77222168 -202.52087891 414.23194336 -202.95019531 413.67529297 C-210.6334873 403.6802884 -217.37592968 393.22040964 -223.6875 382.3125 C-224.08179199 381.63525879 -224.47608398 380.95801758 -224.88232422 380.26025391 C-238.06461173 357.3416244 -246.67010918 331.76677437 -252 305.9375 C-252.14743652 305.22682373 -252.29487305 304.51614746 -252.44677734 303.78393555 C-255.43213787 288.14141634 -256.0623098 272.50580394 -256 256.625 C-255.99817719 255.65760895 -255.99635437 254.6902179 -255.99447632 253.69351196 C-255.94904826 239.36059023 -255.44016072 225.41476083 -252.6875 211.3125 C-252.44604248 209.96696045 -252.44604248 209.96696045 -252.19970703 208.59423828 C-241.37712011 148.78411096 -207.31935543 91.27004171 -158.6875 54.3125 C-158.14722168 53.89581055 -157.60694336 53.47912109 -157.05029297 53.04980469 C-147.0552884 45.3665127 -136.59540964 38.62407032 -125.6875 32.3125 C-125.01025879 31.91820801 -124.33301758 31.52391602 -123.63525391 31.11767578 C-100.7166244 17.93538827 -75.14177437 9.32989082 -49.3125 4 C-48.60182373 3.85256348 -47.89114746 3.70512695 -47.15893555 3.55322266 C-31.51641634 0.56786213 -15.88080394 -0.0623098 0 0 Z M-36.6875 77.3125 C-37.84596436 77.56193359 -37.84596436 77.56193359 -39.02783203 77.81640625 C-86.35731275 88.29311032 -127.26865681 117.948627 -153.6875 158.3125 C-172.1435033 187.74049869 -182.15160461 221.74079704 -182 256.5 C-181.99817719 257.17059448 -181.99635437 257.84118896 -181.99447632 258.53210449 C-181.83571928 293.45037885 -170.95412879 326.68631143 -152.6875 356.3125 C-146.61929724 351.28787701 -141.06518874 345.82823852 -135.50660706 340.25186157 C-134.48607792 339.23176907 -133.46532883 338.21189659 -132.44438022 337.19222391 C-129.65316182 334.40323232 -126.86505561 331.61114788 -124.07746518 328.8185308 C-121.06574239 325.80247757 -118.0511178 322.78932718 -115.03684998 319.77581787 C-109.8193281 314.55881959 -104.60363596 309.33999784 -99.38919258 304.11992264 C-91.85003893 296.57263169 -84.30811574 289.02811329 -76.76552021 281.48426227 C-64.52735061 269.24390566 -52.29141446 257.00131893 -40.05688477 244.75732422 C-28.17426941 232.86552568 -16.29060112 220.97478099 -4.40551758 209.08544922 C-3.67255573 208.35222465 -2.93959388 207.61900008 -2.18442107 206.86355658 C1.4927488 203.18508164 5.16993935 199.50662739 8.84714019 195.82818341 C39.33880104 165.32616087 69.82683652 134.82051661 100.3125 104.3125 C73.4575989 82.50210722 34.52962499 73.82715489 0.6875 74 C-0.0566214 74.00182281 -0.8007428 74.00364563 -1.56741333 74.00552368 C-13.48742118 74.05453648 -25.02603081 74.7148125 -36.6875 77.3125 Z M150.57247013 157.92833138 C149.80733366 158.69384756 149.0421972 159.45936375 148.25387478 160.24807739 C147.37406805 161.12589308 146.49426131 162.00370876 145.58779377 162.90812492 C144.60026845 163.89850388 143.61278919 164.88892876 142.62535095 165.87939453 C141.5852519 166.91905805 140.54493335 167.95850202 139.50441271 168.99774361 C136.6312181 171.86868978 133.76117168 174.7427657 130.89160097 177.61733341 C127.80204683 180.71118688 124.70962315 183.80216967 121.61753845 186.89349365 C116.25585441 192.25465213 110.89601127 197.61764545 105.53739738 202.98187256 C97.78963987 210.73774069 90.0391381 218.49086161 82.28795344 226.24330449 C69.71369494 238.8197542 57.14167343 251.39843767 44.57104492 263.97851562 C32.35639289 276.20233999 20.14069598 288.4251186 7.92358398 300.64648438 C7.17112382 301.39920726 6.41866366 302.15193015 5.64340167 302.92746282 C1.86870353 306.70346595 -1.90601525 310.47944845 -5.68074429 314.25542068 C-37.01953053 345.60458169 -68.3546923 376.95736365 -99.6875 408.3125 C-72.8325989 430.12289278 -33.90462499 438.79784511 -0.0625 438.625 C0.6816214 438.62317719 1.4257428 438.62135437 2.19241333 438.61947632 C14.11242118 438.57046352 25.65103081 437.9101875 37.3125 435.3125 C38.08480957 435.14621094 38.85711914 434.97992188 39.65283203 434.80859375 C86.98231275 424.33188968 127.89365681 394.676373 154.3125 354.3125 C172.7685033 324.88450131 182.77660461 290.88420296 182.625 256.125 C182.62317719 255.45440552 182.62135437 254.78381104 182.61947632 254.09289551 C182.46458157 220.02412404 172.28111081 184.84788844 153.3125 156.3125 C152.03886632 156.19908812 152.03886632 156.19908812 150.57247013 157.92833138 Z " fill="#000000" transform="translate(255.6875,-0.3125)"/>
</svg>
