<svg width="294" height="280" viewBox="0 0 294 280" fill="none" xmlns="http://www.w3.org/2000/svg">
<g clip-path="url(#clip0_30_827)">
<path d="M131.994 65.869C132.847 65.7118 133.616 65.2777 134.171 64.6408C134.726 64.0038 135.031 63.2034 135.036 62.3759V3.57661C135.039 3.07078 134.93 2.57002 134.715 2.10737C134.5 1.64473 134.185 1.23074 133.79 0.892725C133.395 0.55471 132.929 0.300355 132.423 0.146473C131.917 -0.00741008 131.382 -0.0573263 130.855 1.25991e-05C122.906 0.822282 115.04 2.25358 107.333 4.28C106.823 4.41233 106.349 4.64562 105.94 4.96462C105.531 5.28362 105.198 5.68116 104.962 6.13125C104.725 6.58134 104.592 7.07385 104.569 7.5766C104.546 8.07935 104.635 8.581 104.83 9.0488L127.738 63.6635C128.059 64.4505 128.663 65.1037 129.442 65.5074C130.221 65.9111 131.125 66.0392 131.994 65.869Z" fill="#94EAE3"/>
<path d="M81.33 97.7008C81.8187 97.0132 82.0411 96.1851 81.9588 95.3585C81.8766 94.5319 81.495 93.7583 80.8794 93.1704L37.2413 51.6103C36.8675 51.2536 36.4188 50.9762 35.9246 50.7962C35.4303 50.6162 34.9017 50.5377 34.3734 50.5658C33.8451 50.5939 33.329 50.7281 32.8589 50.9595C32.3888 51.1908 31.9754 51.5142 31.6457 51.9084C26.6412 57.8465 22.1453 64.1576 18.2013 70.7809C17.9377 71.2185 17.7742 71.7044 17.7218 72.2064C17.6693 72.7085 17.729 73.2155 17.8969 73.694C18.0648 74.1726 18.3371 74.6118 18.6959 74.983C19.0547 75.3542 19.4919 75.6489 19.9788 75.8477L76.7234 99.0241C77.5324 99.352 78.4367 99.3992 79.2785 99.1574C80.1203 98.9155 80.8463 98.4001 81.33 97.7008Z" fill="#94EAE3"/>
<path d="M102.483 77.5402L104.273 76.4196C104.994 75.9676 105.529 75.293 105.789 74.5091C106.049 73.7252 106.018 72.88 105.7 72.1157L82.792 17.513C82.5913 17.054 82.2925 16.64 81.9144 16.2972C81.5363 15.9544 81.0874 15.6905 80.5962 15.5222C80.105 15.3539 79.5824 15.285 79.0617 15.3199C78.541 15.3547 78.0336 15.4926 77.5719 15.7247C69.4283 19.8623 61.7086 24.7158 54.5136 30.2218C54.0997 30.5358 53.7602 30.9296 53.5172 31.3773C53.2743 31.8249 53.1334 32.3165 53.1039 32.8196C53.0743 33.3228 53.1568 33.8262 53.3458 34.2969C53.5348 34.7676 53.8261 35.195 54.2007 35.551L97.8387 77.111C98.4486 77.6709 99.2392 78.018 100.082 78.0959C100.925 78.1738 101.771 77.978 102.483 77.5402V77.5402Z" fill="#94EAE3"/>
<path d="M69.1492 125.812C69.2743 125.133 69.4245 124.465 69.5747 123.809C69.7459 123.005 69.6217 122.17 69.2228 121.442C68.824 120.715 68.1748 120.141 67.3841 119.815L10.6396 96.6271C10.1526 96.4277 9.62688 96.3288 9.09692 96.3368C8.56695 96.3448 8.04477 96.4596 7.5647 96.6735C7.08464 96.8875 6.65755 97.1958 6.31156 97.5782C5.96556 97.9606 5.70848 98.4085 5.55722 98.8923C2.86496 107.303 1.01239 115.937 0.0242027 124.68C-0.0360032 125.182 0.016428 125.691 0.178005 126.173C0.339581 126.655 0.606654 127.099 0.96157 127.475C1.31649 127.851 1.75117 128.152 2.23695 128.356C2.72273 128.561 3.24851 128.665 3.77963 128.661H65.5064C66.3639 128.654 67.1929 128.367 67.8556 127.849C68.5183 127.331 68.9748 126.612 69.1492 125.812Z" fill="#94EAE3"/>
<path d="M161.908 65.8577C162.609 65.9769 163.31 66.12 164.011 66.2631C164.855 66.4261 165.733 66.3078 166.496 65.9279C167.26 65.5481 167.863 64.9298 168.205 64.1768L192.552 10.1343C192.762 9.67057 192.866 9.16986 192.857 8.66513C192.849 8.1604 192.728 7.66309 192.504 7.20588C192.279 6.74868 191.955 6.34195 191.554 6.01243C191.152 5.68291 190.682 5.43807 190.174 5.29401C181.337 2.73558 172.267 0.97136 163.085 0.0244877C162.557 -0.0328512 162.023 0.017065 161.517 0.170948C161.011 0.32483 160.545 0.579185 160.15 0.9172C159.754 1.25521 159.439 1.6692 159.224 2.13185C159.01 2.59449 158.9 3.09526 158.904 3.60109V62.3885C158.912 63.2068 159.215 63.9977 159.762 64.629C160.308 65.2604 161.066 65.6941 161.908 65.8577V65.8577Z" fill="#94EAE3"/>
<path d="M259.612 48.7856L213.057 93.1235C212.447 93.7062 212.067 94.4714 211.98 95.2902C211.894 96.1089 212.106 96.9311 212.582 97.618C212.982 98.1784 213.383 98.7387 213.771 99.3229C214.247 100.005 214.954 100.51 215.774 100.756C216.594 101.001 217.478 100.971 218.278 100.67L275.61 78.9124C276.104 78.7259 276.55 78.4418 276.92 78.0789C277.29 77.716 277.575 77.2825 277.756 76.807C277.937 76.3316 278.01 75.825 277.97 75.3207C277.931 74.8164 277.779 74.3258 277.526 73.8813C272.515 64.9482 266.509 56.5544 259.612 48.8451" fill="#94EAE3"/>
<path d="M69.1624 154.306V154.247C68.9999 153.432 68.5451 152.697 67.8761 152.166C67.207 151.635 66.3651 151.343 65.4945 151.338H3.71773C3.18543 151.334 2.65843 151.439 2.17169 151.644C1.68495 151.849 1.24959 152.151 0.894476 152.528C0.539358 152.906 0.272575 153.351 0.111866 153.835C-0.0488422 154.318 -0.0998112 154.828 -0.0376952 155.332C0.825652 162.898 2.32852 170.385 4.4563 177.721C4.59523 178.207 4.8402 178.659 5.17515 179.048C5.5101 179.437 5.9275 179.755 6.4001 179.98C6.87269 180.205 7.38983 180.332 7.91772 180.354C8.44561 180.376 8.97238 180.291 9.46357 180.106L66.809 158.288C67.6274 157.99 68.3106 157.429 68.7404 156.702C69.1702 155.975 69.3194 155.127 69.1624 154.306V154.306Z" fill="#94EAE3"/>
<path d="M191.49 77.4809C192.211 77.9432 193.078 78.1531 193.943 78.0748C194.808 77.9966 195.618 77.635 196.234 77.0517L239.885 35.4916C240.259 35.1348 240.549 34.7068 240.737 34.2356C240.925 33.7645 241.006 33.2608 240.976 32.7576C240.945 32.2544 240.803 31.7631 240.559 31.3159C240.315 30.8686 239.974 30.4756 239.56 30.1625C233.331 25.3937 226.708 21.1117 219.756 17.3582C219.296 17.1072 218.786 16.9516 218.259 16.9016C217.732 16.8517 217.2 16.9085 216.697 17.0684C216.195 17.2283 215.733 17.4876 215.344 17.8293C214.954 18.1711 214.644 18.5874 214.436 19.0512L190.088 73.0936C189.745 73.8654 189.697 74.7275 189.953 75.5294C190.21 76.3312 190.754 77.0219 191.49 77.4809Z" fill="#94EAE3"/>
<path d="M224.836 125.705V125.765C225.001 126.579 225.459 127.313 226.13 127.842C226.801 128.37 227.645 128.66 228.516 128.662H290.23C290.761 128.665 291.287 128.561 291.773 128.356C292.258 128.152 292.693 127.851 293.048 127.475C293.403 127.099 293.67 126.655 293.832 126.173C293.993 125.691 294.046 125.182 293.985 124.68C293.134 117.108 291.631 109.616 289.491 102.278C289.352 101.793 289.108 101.341 288.773 100.951C288.438 100.562 288.02 100.245 287.548 100.02C287.075 99.7946 286.558 99.6671 286.03 99.6454C285.502 99.6237 284.975 99.7084 284.484 99.8938L227.151 121.723C226.34 122.027 225.665 122.591 225.242 123.318C224.82 124.044 224.676 124.888 224.836 125.705Z" fill="#94EAE3"/>
<path d="M212.648 182.311C212.162 182.998 211.942 183.823 212.024 184.647C212.106 185.471 212.486 186.242 213.098 186.83L256.737 228.402C257.111 228.76 257.561 229.038 258.057 229.218C258.553 229.398 259.084 229.476 259.614 229.447C260.144 229.418 260.661 229.282 261.132 229.048C261.602 228.815 262.016 228.489 262.345 228.092C267.348 222.159 271.84 215.852 275.777 209.231C276.04 208.793 276.204 208.308 276.256 207.806C276.308 207.303 276.249 206.797 276.081 206.318C275.913 205.839 275.641 205.4 275.282 205.029C274.923 204.658 274.486 204.363 273.999 204.164L217.267 180.976C216.455 180.646 215.547 180.599 214.702 180.843C213.858 181.087 213.13 181.607 212.648 182.311Z" fill="#94EAE3"/>
<path d="M191.489 202.459L189.699 203.592C188.983 204.045 188.452 204.718 188.195 205.5C187.937 206.281 187.969 207.122 188.285 207.884L211.193 262.487C211.389 262.955 211.687 263.379 212.067 263.73C212.447 264.081 212.901 264.351 213.398 264.524C213.896 264.696 214.426 264.766 214.954 264.729C215.483 264.693 215.997 264.55 216.463 264.311C224.604 260.169 232.323 255.316 239.521 249.813C239.936 249.5 240.276 249.107 240.52 248.66C240.764 248.213 240.907 247.722 240.937 247.218C240.968 246.715 240.887 246.211 240.699 245.74C240.511 245.269 240.22 244.841 239.847 244.484L196.221 202.9C195.607 202.318 194.8 201.956 193.938 201.876C193.075 201.796 192.21 202.002 191.489 202.459V202.459Z" fill="#94EAE3"/>
<path d="M224.86 154.199C224.723 154.867 224.585 155.534 224.422 156.202C224.251 157.006 224.375 157.841 224.774 158.569C225.173 159.296 225.822 159.87 226.613 160.196L283.37 183.384C283.856 183.581 284.381 183.679 284.909 183.67C285.438 183.661 285.958 183.545 286.437 183.332C286.915 183.118 287.341 182.81 287.686 182.429C288.031 182.047 288.288 181.601 288.44 181.119C291.131 172.708 292.983 164.074 293.973 155.332C294.035 154.828 293.984 154.318 293.823 153.834C293.662 153.351 293.396 152.906 293.041 152.528C292.685 152.15 292.25 151.849 291.763 151.644C291.277 151.439 290.75 151.334 290.217 151.338H228.503C227.644 151.346 226.813 151.634 226.15 152.155C225.488 152.676 225.032 153.397 224.86 154.199V154.199Z" fill="#94EAE3"/>
<path d="M81.4153 182.394C81.0147 181.834 80.6266 181.262 80.2386 180.689C79.7622 180.005 79.053 179.497 78.2301 179.252C77.4071 179.007 76.5207 179.038 75.7196 179.342L18.3866 201.159C17.8958 201.347 17.4523 201.632 17.085 201.994C16.7177 202.357 16.4349 202.789 16.2553 203.263C16.0757 203.737 16.0032 204.242 16.0426 204.744C16.082 205.247 16.2324 205.735 16.4839 206.179C20.8254 213.936 25.9217 221.288 31.7059 228.139C32.0346 228.534 32.4474 228.858 32.917 229.091C33.3866 229.323 33.9024 229.458 34.4308 229.488C34.9591 229.517 35.488 229.439 35.9827 229.26C36.4774 229.081 36.9269 228.805 37.3015 228.449L80.9396 186.877C81.5466 186.295 81.9251 185.532 82.0117 184.716C82.0983 183.9 81.8878 183.08 81.4153 182.394V182.394Z" fill="#94EAE3"/>
<path d="M102.611 202.519H102.548C101.828 202.057 100.961 201.847 100.096 201.925C99.2304 202.003 98.4205 202.365 97.8039 202.948L54.1659 244.52C53.7913 244.876 53.5 245.303 53.311 245.774C53.122 246.245 53.0395 246.748 53.0691 247.251C53.0986 247.755 53.2395 248.246 53.4824 248.694C53.7254 249.142 54.0649 249.535 54.4788 249.849C60.7099 254.617 67.3371 258.895 74.295 262.642C74.7545 262.893 75.2647 263.048 75.7918 263.098C76.319 263.148 76.8513 263.091 77.3538 262.931C77.8562 262.772 78.3174 262.512 78.7072 262.17C79.097 261.829 79.4064 261.412 79.6152 260.949L103.95 206.918C104.303 206.151 104.362 205.291 104.117 204.488C103.872 203.684 103.339 202.987 102.611 202.519V202.519Z" fill="#94EAE3"/>
<path d="M132.105 214.155L129.989 213.749C129.147 213.585 128.27 213.702 127.507 214.08C126.744 214.457 126.14 215.073 125.796 215.824L101.461 269.878C101.253 270.341 101.151 270.841 101.161 271.344C101.17 271.847 101.291 272.343 101.516 272.799C101.74 273.255 102.063 273.66 102.463 273.989C102.864 274.318 103.333 274.562 103.839 274.706C112.67 277.271 121.736 279.035 130.916 279.976C131.443 280.033 131.978 279.983 132.484 279.83C132.99 279.676 133.456 279.421 133.851 279.083C134.246 278.745 134.561 278.331 134.776 277.869C134.991 277.406 135.1 276.905 135.097 276.399V217.648C135.095 216.827 134.796 216.032 134.251 215.396C133.707 214.76 132.949 214.322 132.105 214.155V214.155Z" fill="#94EAE3"/>
<path d="M162.021 214.131H161.946C161.09 214.288 160.319 214.724 159.764 215.364C159.209 216.003 158.905 216.806 158.904 217.636V276.423C158.9 276.929 159.01 277.43 159.224 277.892C159.439 278.355 159.754 278.769 160.15 279.107C160.545 279.445 161.011 279.7 161.517 279.853C162.023 280.007 162.557 280.057 163.085 280C171.035 279.19 178.902 277.759 186.606 275.72C187.116 275.588 187.591 275.354 187.999 275.035C188.408 274.716 188.741 274.319 188.978 273.869C189.214 273.419 189.348 272.926 189.371 272.423C189.393 271.921 189.305 271.419 189.11 270.951L166.202 216.348C165.884 215.573 165.293 214.928 164.53 214.523C163.767 214.118 162.88 213.98 162.021 214.131V214.131Z" fill="#94EAE3"/>
</g>
<defs>
<clipPath id="clip0_30_827">
<rect width="294" height="280" fill="white"/>
</clipPath>
</defs>
</svg>
