<svg width="24" height="24" viewBox="0 0 24 24" fill="none" xmlns="http://www.w3.org/2000/svg">
<path d="M13.05 12L20.025 5.025C20.325 4.725 20.325 4.275 20.025 3.975C19.725 3.675 19.275 3.675 18.975 3.975L12 10.875L5.025 3.975C4.725 3.675 4.275 3.675 3.975 3.975C3.675 4.275 3.675 4.725 3.975 5.025L10.95 12L7.4625 15.4875L3.975 18.975C3.675 19.275 3.675 19.725 3.975 20.025C4.05 20.175 4.275 20.25 4.5 20.25C4.725 20.25 4.875 20.175 5.025 20.025L12 13.05L18.975 20.025C19.125 20.175 19.35 20.25 19.5 20.25C19.65 20.25 19.875 20.175 20.025 20.025C20.325 19.725 20.325 19.275 20.025 18.975L13.05 12Z" fill="#707070"/>
</svg>
