<?xml version="1.0" encoding="UTF-8"?>
<svg version="1.1" xmlns="http://www.w3.org/2000/svg" width="512" height="512">
<path d="M0 0 C1.6840394 -0.00761181 1.6840394 -0.00761181 3.40209979 -0.0153774 C5.26013459 -0.01612404 5.26013459 -0.01612404 7.15570545 -0.01688576 C8.46752806 -0.02126801 9.77935067 -0.02565027 11.13092548 -0.03016531 C14.78000841 -0.04213591 18.42907813 -0.04778038 22.07817686 -0.05234647 C26.01083804 -0.05830069 29.9434834 -0.06991096 33.87613392 -0.08063698 C43.37740771 -0.10516468 52.87868673 -0.11978845 62.37998244 -0.13269705 C65.06316607 -0.13640864 67.74634918 -0.14038189 70.42953229 -0.14444971 C87.08870507 -0.16968533 103.74787867 -0.19174028 120.40706635 -0.20417786 C124.26621663 -0.20710759 128.12536688 -0.21006925 131.9845171 -0.21308327 C132.94370007 -0.21382932 133.90288303 -0.21457537 134.89113215 -0.21534403 C150.43112246 -0.22799906 165.97099838 -0.26122395 181.51093521 -0.3028851 C197.46232463 -0.34529908 213.41365549 -0.36887225 229.36510116 -0.37409842 C238.32253814 -0.37751309 247.27979635 -0.38927488 256.23717785 -0.42220116 C263.86537825 -0.45019544 271.49336324 -0.46120375 279.12161102 -0.4500057 C283.01333221 -0.44481745 286.90460226 -0.44771602 290.79625797 -0.47247124 C295.01721724 -0.49909693 299.23718275 -0.48690922 303.45819569 -0.47098732 C304.68573195 -0.48486941 305.91326821 -0.49875149 307.17800254 -0.51305425 C315.238235 -0.4380257 320.27548106 0.9942462 326.13889712 6.57970774 C330.67840662 11.56730521 331.87289004 16.7284395 331.88167858 23.31624126 C331.88812747 24.54182572 331.89457637 25.76741017 331.90122068 27.03013355 C331.8982787 28.38186707 331.89514329 29.73360019 331.89183521 31.08533287 C331.89557305 32.52777951 331.90017511 33.97022413 331.90556586 35.41266555 C331.91779475 39.37230804 331.91753553 43.33186603 331.91517711 47.2915231 C331.91476891 51.56362657 331.92580831 55.83570296 331.93529224 60.10779381 C331.9519025 68.47606158 331.9574018 76.84430118 331.958517 85.21258406 C331.95946744 92.01490463 331.96357754 98.81721591 331.96991825 105.61953354 C331.98753056 124.90663334 331.99675711 144.19371089 331.9952573 163.48081879 C331.99517739 164.52051031 331.99509748 165.56020183 331.99501514 166.63139915 C331.99493338 167.67236052 331.99485162 168.71332189 331.99476738 169.78582754 C331.99395444 186.65703842 332.0130943 203.52816002 332.04129188 220.39934508 C332.0700185 237.72380497 332.0838323 255.04822132 332.08210433 272.37270564 C332.08144036 282.09859626 332.08693565 291.82439329 332.10846043 301.55026245 C332.12666926 309.83088589 332.13102198 318.11137331 332.11744158 326.3920081 C332.11091049 330.6159408 332.11079974 334.83961254 332.12814808 339.06352043 C332.14387771 342.93314607 332.1410166 346.80230378 332.12357982 350.671918 C332.12050966 352.06893066 332.124143 353.46597823 332.13529997 354.86294971 C332.1992296 363.4381438 332.04724136 371.48440014 325.84509122 378.00877506 C321.23088888 382.20748231 317.46327027 384.38510038 311.12577152 384.39428329 C309.43874555 384.40395663 309.43874555 384.40395663 307.71763825 384.41382539 C305.86397271 384.40917959 305.86397271 384.40917959 303.97285938 384.40443993 C302.00384383 384.4112366 302.00384383 384.4112366 299.99505019 384.41817057 C296.34820052 384.43042241 292.70144244 384.43013754 289.05457687 384.42778182 C285.12260933 384.4273742 281.19067135 384.43840765 277.25871754 384.44789696 C269.55359306 384.46452046 261.84849917 384.47000713 254.14335826 384.47112171 C247.88016863 384.47207165 241.61698911 384.47617925 235.35380268 384.48252296 C217.5992713 384.50013992 199.84476412 384.50936125 182.09022394 384.50786202 C180.65405018 384.50774215 180.65405018 384.50774215 179.1888628 384.50761986 C178.23024533 384.5075381 177.27162787 384.50745634 176.28396139 384.5073721 C160.75051545 384.50655931 145.21716651 384.52569381 129.68374863 384.55389659 C113.73684145 384.58262175 97.78998157 384.59643705 81.84304786 384.59470904 C72.88901567 384.59404496 63.93508513 384.5995451 54.98107624 384.62106514 C47.35657074 384.63927222 39.73221295 384.64362828 32.10769513 384.63004629 C28.21806102 384.62351389 24.32871032 384.62340895 20.43910313 384.64075279 C16.22048553 384.65937003 12.00252478 384.64693599 7.78389454 384.63149071 C6.5570404 384.64177783 5.33018626 384.65206496 4.06615472 384.66266382 C-3.78123033 384.59907815 -9.62463859 383.78435259 -15.47687817 378.09377098 C-16.23087399 377.03212227 -16.23087399 377.03212227 -17.00010204 375.94902611 C-17.57000866 375.15897179 -18.13991528 374.36891747 -18.72709179 373.5549221 C-19.54309856 372.35805779 -19.54309856 372.35805779 -20.37559032 371.13701439 C-20.87753918 370.41048668 -21.37948803 369.68395897 -21.89664745 368.93541527 C-23.41952268 366.68874122 -24.9052972 364.42118191 -26.38340282 362.14482689 C-26.93789104 361.298507 -27.49237926 360.45218712 -28.06367016 359.58022118 C-29.25631108 357.75972674 -30.44740043 355.93821503 -31.63706493 354.11577415 C-34.86586591 349.17126287 -38.10830455 344.23572534 -41.35215282 339.30107689 C-42.01946423 338.28583946 -42.68677563 337.27060204 -43.37430859 336.22459984 C-50.1242371 325.97184049 -56.99158411 315.80001884 -63.87559032 305.63701439 C-74.92573184 289.31470535 -85.82905135 272.90136425 -96.65000439 256.42632103 C-102.71387827 247.19654778 -108.79964867 237.9827743 -114.94199657 228.80498314 C-115.55117428 227.8942907 -116.16035198 226.98359825 -116.78798962 226.04530907 C-119.6935211 221.70318425 -122.60325403 217.36395455 -125.51890087 213.02861595 C-126.5493644 211.49060285 -127.57972523 209.95252093 -128.60996532 208.41435814 C-129.0813644 207.7165876 -129.55276348 207.01881706 -130.03844738 206.29990196 C-133.24703636 201.49983292 -134.54824026 198.19808812 -134.68809032 192.44951439 C-134.72547314 191.4556472 -134.76285595 190.46178001 -134.80137157 189.43779564 C-133.83479869 181.94463888 -128.85050039 175.59747543 -124.66074657 169.49638939 C-124.10201351 168.67358482 -123.54328045 167.85078026 -122.96761608 167.00304222 C-121.76052551 165.22588461 -120.55139687 163.45010993 -119.34043407 161.67558861 C-116.05034914 156.85277674 -112.77725155 152.01847168 -109.50449657 147.18388939 C-108.82790997 146.18482567 -108.15132336 145.18576195 -107.45423412 144.15642357 C-100.50342152 133.87640746 -93.68338519 123.51204819 -86.87559032 113.13701439 C-76.11509214 96.74933647 -65.2307673 80.45085164 -54.22861767 64.22441673 C-47.9450202 54.95083756 -41.71823088 45.64478579 -35.57480907 36.27763939 C-34.29255796 34.32908992 -33.01009008 32.38068308 -31.72739697 30.43242455 C-29.88039282 27.62697516 -28.03770733 24.81922324 -26.20954418 22.00145531 C-24.53918059 19.42707747 -22.85352111 16.86333906 -21.16465282 14.30107689 C-20.68046383 13.54482018 -20.19627483 12.78856346 -19.69741344 12.00938988 C-14.77035095 4.59760065 -9.22693752 0.02210862 0 0 Z M-14.01136589 81.17666435 C-16.89448757 87.39866379 -20.55535971 92.86775695 -24.53184032 98.44951439 C-25.61633474 100.08833543 -26.69499727 101.73105046 -27.76450634 103.37969017 C-40.40619466 122.7148639 -53.2464254 141.91111157 -66.20099926 161.03783226 C-67.30693924 162.67318614 -68.41061439 164.31007428 -69.51185131 165.94859886 C-72.28011685 170.06496444 -75.08241357 174.15011909 -77.94932079 178.19853783 C-78.51908138 179.01659904 -79.08884197 179.83466026 -79.67586803 180.67751122 C-80.75884116 182.23192794 -81.85591077 183.77664933 -82.96898937 185.30965233 C-85.76216371 189.12319374 -85.76216371 189.12319374 -86.03525829 193.6196804 C-85.21372265 194.86576073 -85.21372265 194.86576073 -84.37559032 196.13701439 C-84.00432522 196.72522972 -83.63306011 197.31344505 -83.25054455 197.91948509 C-81.827996 200.1387494 -80.34770964 202.31127276 -78.85605907 204.48467064 C-78.01371464 205.72524475 -78.01371464 205.72524475 -77.15435314 206.99088097 C-75.93525205 208.78592813 -74.71415916 210.57962382 -73.49131298 212.37212181 C-70.17465291 217.23540875 -66.87445757 222.10983168 -63.57480907 226.98467064 C-62.89203899 227.99300957 -62.20926891 229.0013485 -61.50580883 230.04024315 C-54.53826841 240.34636888 -47.70010002 250.73586725 -40.87559032 261.13701439 C-29.73932412 278.09963989 -18.46150254 294.96180411 -7.09043407 311.76787376 C-6.51403683 312.61979805 -5.93763958 313.47172234 -5.34377575 314.34946251 C-4.29309696 315.90167877 -3.24183749 317.45350228 -2.18975353 319.00476646 C-1.70234188 319.72427986 -1.21493023 320.44379326 -0.71274853 321.18511009 C-0.20507631 321.88826819 0.3025959 322.5914263 0.82565212 323.31589222 C2.24535923 325.54252203 3.20757678 327.43945674 4.21040344 329.84198189 C6.29184998 334.33827398 8.56353362 338.18001304 12.62440968 341.13701439 C20.93338634 344.00796132 30.3525273 343.02798533 39.00380421 342.83989525 C41.75846624 342.82693753 44.51294409 342.83664145 47.2676115 342.84537411 C53.88766137 342.85332637 60.50464151 342.7843081 67.12390392 342.68785417 C74.78574706 342.57956519 82.4457642 342.56791922 90.10854053 342.55608177 C110.32264792 342.4774249 130.53607534 342.26800624 150.74940968 342.07451439 C195.91815968 341.76513939 241.08690968 341.45576439 287.62440968 341.13701439 C287.62440968 242.79701439 287.62440968 144.45701439 287.62440968 43.13701439 C220.45909718 41.80670189 220.45909718 41.80670189 151.93690968 40.44951439 C137.8439922 40.05804222 123.75107471 39.66657005 109.23109913 39.26323509 C96.50228189 39.11934884 96.50228189 39.11934884 83.77301502 39.03293419 C78.13374196 38.99312019 72.51333261 38.83616048 66.87933826 38.59726524 C26.20727578 36.92583919 4.13296586 41.86520876 -14.01136589 81.17666435 Z " fill="#000000" transform="translate(138.37559032440186,63.862985610961914)"/>
<path d="M0 0 C4.01571255 1.60859504 6.70479614 4.43640365 9.68652344 7.45947266 C10.24306107 8.01571823 10.79959869 8.57196381 11.3730011 9.14506531 C13.20657442 10.98002905 15.03296672 12.82196931 16.859375 14.6640625 C18.13117525 15.93959389 19.40341853 17.21468367 20.67608643 18.48934937 C24.02106258 21.84195395 27.35998851 25.20052173 30.69769287 28.56036377 C34.10602831 31.98917456 37.52004745 35.41231573 40.93359375 38.8359375 C47.62797297 45.55175272 54.31597466 52.27388094 61 59 C67.85907115 53.38062338 74.03009491 47.09685489 80.27734375 40.8203125 C81.45539258 39.64039553 82.63366466 38.46070142 83.81214905 37.28121948 C86.89347142 34.19610309 89.97177716 31.10799411 93.04943848 28.01922607 C96.19844034 24.85994267 99.35032171 21.70353484 102.50195312 18.546875 C108.6707711 12.36737473 114.83640129 6.1847061 121 0 C125.17513552 1.91973078 128.09918108 4.75833911 131.33203125 7.9609375 C131.92803635 8.54791412 132.52404144 9.13489075 133.1381073 9.73965454 C134.3922274 10.97929844 135.64358151 12.22174608 136.89233398 13.46679688 C138.81110678 15.37361546 140.7477424 17.26098794 142.68554688 19.1484375 C143.90218592 20.3556187 145.11772004 21.56391474 146.33203125 22.7734375 C146.91523636 23.33711029 147.49844147 23.90078308 148.09931946 24.48153687 C149.69848633 26.09912109 149.69848633 26.09912109 152 29 C151.94795503 33.31288464 148.53447742 35.86478396 145.65405273 38.68652344 C145.09795319 39.24306107 144.54185364 39.79959869 143.96890259 40.3730011 C142.13082172 42.20899358 140.28234668 44.03413439 138.43359375 45.859375 C137.15641614 47.13095686 135.87989969 48.40320311 134.60401917 49.67608643 C131.24536118 53.02329412 127.87779136 56.36139483 124.50830078 59.69769287 C121.07108069 63.10421627 117.64234523 66.51925585 114.21289062 69.93359375 C107.48354791 76.63076904 100.74476188 83.31835621 94 90 C95.5946677 93.97579609 98.36805851 96.60334741 101.38354492 99.53125 C102.20569237 100.34178833 102.20569237 100.34178833 103.04444885 101.16870117 C104.23185707 102.33848787 105.42145856 103.50605152 106.61299706 104.67163086 C108.49634645 106.51554524 110.37206517 108.36690303 112.24568176 110.22070312 C117.57236864 115.4893437 122.90865083 120.74810622 128.25952148 125.9921875 C131.53381228 129.20218524 134.79592079 132.42413926 138.0505619 135.65405273 C139.29435172 136.88354935 140.54280352 138.10834781 141.7958889 139.32836914 C143.54364168 141.03061679 145.27555429 142.74757284 147.00463867 144.46875 C147.52873322 144.97172607 148.05282776 145.47470215 148.59280396 145.99291992 C150.00773621 147.41992187 150.00773621 147.41992187 152 150 C151.97010826 153.21529589 150.5440186 154.82652873 148.31616211 157.02441406 C147.75565659 157.58469299 147.19515106 158.14497192 146.61766052 158.722229 C146.01035599 159.31404968 145.40305145 159.90587036 144.77734375 160.515625 C144.15726944 161.13145447 143.53719513 161.74728394 142.89833069 162.3817749 C140.91832095 164.34500635 138.92813081 166.29754436 136.9375 168.25 C135.59241465 169.58003748 134.24800512 170.91075879 132.90429688 172.2421875 C129.61065094 175.50277537 126.30783661 178.75381188 123 182 C118.98428745 180.39140496 116.29520386 177.56359635 113.31347656 174.54052734 C112.75693893 173.98428177 112.20040131 173.42803619 111.6269989 172.85493469 C109.79342558 171.01997095 107.96703328 169.17803069 106.140625 167.3359375 C104.86882475 166.06040611 103.59658147 164.78531633 102.32391357 163.51065063 C98.97893742 160.15804605 95.64001149 156.79947827 92.30230713 153.43963623 C88.89397169 150.01082544 85.47995255 146.58768427 82.06640625 143.1640625 C75.37202703 136.44824728 68.68402534 129.72611906 62 123 C55.14092885 128.61937662 48.96990509 134.90314511 42.72265625 141.1796875 C41.54460742 142.35960447 40.36633534 143.53929858 39.18785095 144.71878052 C36.10652858 147.80389691 33.02822284 150.89200589 29.95056152 153.98077393 C26.80155966 157.14005733 23.64967829 160.29646516 20.49804688 163.453125 C14.3292289 169.63262527 8.16359871 175.8152939 2 182 C-0.80969467 180.71977125 -2.8539238 179.39285871 -5.02441406 177.20263672 C-5.58469299 176.64220673 -6.14497192 176.08177673 -6.722229 175.50436401 C-7.31404968 174.90222076 -7.90587036 174.30007751 -8.515625 173.6796875 C-9.13145447 173.06102814 -9.74728394 172.44236877 -10.3817749 171.80496216 C-12.34260336 169.83296186 -14.29635301 167.85411263 -16.25 165.875 C-17.58026799 164.53469836 -18.910992 163.19484917 -20.2421875 161.85546875 C-23.5001015 158.57553411 -26.75168533 155.28944058 -30 152 C-24.38062338 145.14092885 -18.09685489 138.96990509 -11.8203125 132.72265625 C-10.64039553 131.54460742 -9.46070142 130.36633534 -8.28121948 129.18785095 C-5.19610309 126.10652858 -2.10799411 123.02822284 0.98077393 119.95056152 C4.14005733 116.80155966 7.29646516 113.64967829 10.453125 110.49804688 C16.63262527 104.3292289 22.8152939 98.16359871 29 92 C27.39140496 87.98428745 24.56359635 85.29520386 21.54052734 82.31347656 C20.98428177 81.75693893 20.42803619 81.20040131 19.85493469 80.6269989 C18.01997095 78.79342558 16.17803069 76.96703328 14.3359375 75.140625 C13.06040611 73.86882475 11.78531633 72.59658147 10.51065063 71.32391357 C7.15804605 67.97893742 3.79947827 64.64001149 0.43963623 61.30230713 C-2.98917456 57.89397169 -6.41231573 54.47995255 -9.8359375 51.06640625 C-16.55175272 44.37202703 -23.27388094 37.68402534 -30 31 C-26.22875755 26.49545175 -22.3393403 22.19806124 -18.1640625 18.06640625 C-17.63984711 17.5436058 -17.11563171 17.02080536 -16.57553101 16.48216248 C-14.9277213 14.83987655 -13.27644099 13.2011335 -11.625 11.5625 C-10.49586045 10.43838533 -9.36695222 9.31403826 -8.23828125 8.18945312 C-5.49484812 5.45694765 -2.74830015 2.72760991 0 0 Z " fill="#000000" transform="translate(216,165)"/>
</svg>
