<svg width="24" height="24" viewBox="0 0 24 24" fill="none" xmlns="http://www.w3.org/2000/svg">
<g clip-path="url(#clip0_3347_16836)">
<path d="M19 11V6C19 4.89543 18.1046 4 17 4H4C2.89543 4 2 4.89543 2 6V14C2 15.1046 2.89543 16 4 16H16" stroke="#088E82" stroke-width="1.5" stroke-linecap="round" stroke-linejoin="round"/>
<path fill-rule="evenodd" clip-rule="evenodd" d="M20.5 20H17.5C16.6716 20 16 19.3284 16 18.5V12.5C16 11.6716 16.6716 11 17.5 11H20.5C21.3284 11 22 11.6716 22 12.5V18.5C22 19.3284 21.3284 20 20.5 20Z" stroke="#088E82" stroke-width="1.5" stroke-linecap="round" stroke-linejoin="round"/>
<path d="M12.5 20V16" stroke="#088E82" stroke-width="1.5" stroke-linecap="round" stroke-linejoin="round"/>
<path d="M8.5 16V20" stroke="#088E82" stroke-width="1.5" stroke-linecap="round" stroke-linejoin="round"/>
<path d="M7.25 20H13.75" stroke="#088E82" stroke-width="1.5" stroke-linecap="round" stroke-linejoin="round"/>
</g>
<defs>
<clipPath id="clip0_3347_16836">
<rect width="24" height="24" fill="white"/>
</clipPath>
</defs>
</svg>
