<?xml version="1.0" standalone="no"?>
<!DOCTYPE svg PUBLIC "-//W3C//DTD SVG 20010904//EN"
 "http://www.w3.org/TR/2001/REC-SVG-20010904/DTD/svg10.dtd">
<svg version="1.0" xmlns="http://www.w3.org/2000/svg"
 width="512.000000pt" height="512.000000pt" viewBox="0 0 512.000000 512.000000"
 preserveAspectRatio="xMidYMid meet">

<g transform="translate(0.000000,512.000000) scale(0.100000,-0.100000)"
fill="#000000" stroke="none">
<path d="M1249 4900 c-52 -4 -122 -15 -155 -25 -203 -58 -368 -225 -426 -430
l-23 -80 -3 -1515 c-2 -1052 0 -1548 8 -1623 18 -180 67 -287 185 -402 82 -81
161 -127 272 -157 74 -20 104 -22 571 -26 l493 -4 55 27 c130 64 159 219 62
329 -65 75 -73 76 -579 76 -274 0 -457 4 -488 11 -70 15 -126 71 -141 142 -7
36 -10 519 -8 1582 3 1418 4 1532 20 1561 25 46 82 92 125 101 21 4 538 8
1148 8 l1110 0 42 -24 c69 -40 93 -84 103 -193 5 -51 10 -369 10 -706 0 -530
2 -618 15 -650 64 -152 273 -172 370 -34 l30 44 0 731 c0 817 2 788 -71 927
-61 118 -180 229 -297 279 -129 55 -103 54 -1262 57 -588 1 -1113 -2 -1166 -6z"/>
<path d="M1620 4034 c-167 -72 -165 -318 2 -389 33 -13 127 -15 725 -15 648 0
690 2 728 19 164 76 166 298 3 382 -36 18 -67 19 -730 19 -596 -1 -698 -3
-728 -16z"/>
<path d="M1611 3174 c-90 -45 -134 -140 -110 -238 17 -72 86 -140 160 -156 39
-8 237 -10 719 -8 l665 3 47 28 c84 49 124 149 97 244 -16 59 -78 124 -135
141 -31 9 -211 12 -716 12 l-674 0 -53 -26z"/>
<path d="M1648 2338 c-21 -5 -58 -28 -82 -50 -113 -98 -89 -275 45 -342 l53
-26 256 0 256 0 53 26 c127 64 155 219 59 328 -60 69 -94 76 -372 75 -127 -1
-248 -6 -268 -11z"/>
<path d="M3568 2338 c-21 -5 -58 -28 -82 -50 -68 -59 -76 -96 -76 -360 l0
-218 -216 0 c-260 0 -291 -6 -355 -70 -105 -105 -80 -268 52 -334 53 -26 55
-26 285 -26 l232 0 4 -242 3 -243 28 -47 c71 -121 234 -142 332 -44 59 60 65
90 65 350 l0 226 226 0 c260 0 290 6 350 65 98 98 77 261 -44 332 l-47 28
-242 3 -243 4 0 233 0 233 -28 53 c-46 89 -149 134 -244 107z"/>
</g>
</svg>
