<svg width="22" height="22" viewBox="0 0 22 22" fill="none" xmlns="http://www.w3.org/2000/svg">
<path fill-rule="evenodd" clip-rule="evenodd" d="M0.5 11C0.5 5.225 5.225 0.5 11 0.5C16.775 0.5 21.5 5.225 21.5 11C21.5 16.775 16.775 21.5 11 21.5C5.225 21.5 0.5 16.775 0.5 11ZM2 11C2 15.95 6.05 20 11 20C15.95 20 20 15.95 20 11C20 6.05 15.95 2 11 2C6.05 2 2 6.05 2 11ZM13.475 7.475C13.775 7.175 14.225 7.175 14.525 7.475C14.825 7.775 14.825 8.225 14.525 8.525L12.05 11L14.525 13.475C14.825 13.775 14.825 14.225 14.525 14.525C14.375 14.675 14.15 14.75 14 14.75C13.85 14.75 13.625 14.675 13.475 14.525L11 12.05L8.525 14.525C8.375 14.675 8.15 14.75 8 14.75C7.85 14.75 7.625 14.675 7.475 14.525C7.175 14.225 7.175 13.775 7.475 13.475L9.95 11L7.475 8.525C7.175 8.225 7.175 7.775 7.475 7.475C7.775 7.175 8.225 7.175 8.525 7.475L11 9.95L13.475 7.475Z" fill="#DF2E24"/>
</svg>
