<svg width="25" height="24" viewBox="0 0 25 24" fill="none" xmlns="http://www.w3.org/2000/svg">
<path d="M14.622 9.88024C15.793 11.0512 15.793 12.9522 14.622 14.1252C13.451 15.2962 11.55 15.2962 10.377 14.1252C9.20603 12.9542 9.20603 11.0532 10.377 9.88024C11.55 8.70724 13.45 8.70724 14.622 9.88024" stroke="#76767A" stroke-width="1.55556" stroke-linecap="round" stroke-linejoin="round"/>
<path fill-rule="evenodd" clip-rule="evenodd" d="M3.5 12.0002C3.5 11.3412 3.652 10.6892 3.946 10.0882V10.0882C5.461 6.99124 8.809 5.00024 12.5 5.00024C16.191 5.00024 19.539 6.99124 21.054 10.0882V10.0882C21.348 10.6892 21.5 11.3412 21.5 12.0002C21.5 12.6592 21.348 13.3112 21.054 13.9122V13.9122C19.539 17.0092 16.191 19.0002 12.5 19.0002C8.809 19.0002 5.461 17.0092 3.946 13.9122V13.9122C3.652 13.3112 3.5 12.6592 3.5 12.0002Z" stroke="#76767A" stroke-width="1.55556" stroke-linecap="round" stroke-linejoin="round"/>
</svg>
