<svg width="24" height="24" viewBox="0 0 24 24" fill="none" xmlns="http://www.w3.org/2000/svg">
<path fill-rule="evenodd" clip-rule="evenodd" d="M9.47886 4.83858C9.65798 4.61978 10.1379 4.09487 10.9511 3.86109C11.1174 3.81327 11.5847 3.69516 12.178 3.77963C12.4503 3.81841 13.2404 3.94255 13.8138 4.5942C13.9398 4.73741 14.0069 4.8525 14.141 5.08295C14.5336 5.75798 14.7055 6.43204 14.7953 6.79355C14.8041 6.82914 14.8892 7.17281 15.0407 7.60812C15.133 7.87359 15.1845 7.98445 15.2861 8.09686C15.4563 8.28527 15.6815 8.38253 15.7768 8.42269C15.8917 8.47116 15.9825 8.49405 16.0222 8.50415C16.0222 8.50415 16.3142 8.57795 17.1673 8.82998C17.5707 8.94915 17.9527 9.06457 18.3941 9.31872C18.6097 9.44278 18.7781 9.54134 18.9667 9.726C19.3107 10.0629 19.4635 10.4333 19.5392 10.622C19.5853 10.737 19.6564 10.9355 19.7028 11.1922C19.7845 11.6444 19.7438 12.0232 19.7028 12.2512C19.6021 12.8112 19.3673 13.1956 19.2938 13.3101C19.1652 13.5108 18.8292 13.9787 18.2305 14.2876C18.08 14.3652 17.912 14.4209 17.5762 14.532C17.2286 14.647 16.8865 14.7602 16.4311 14.8578C16.2896 14.8882 15.9684 14.9531 15.695 15.1022C15.5674 15.1717 15.47 15.2488 15.4496 15.2651C15.3876 15.3147 15.2908 15.393 15.2043 15.5095C15.1125 15.633 15.0701 15.7484 15.0407 15.8353C14.9019 16.2449 14.8207 16.6801 14.7135 17.0571C14.6733 17.199 14.571 17.5402 14.3863 17.9532C14.3067 18.1312 14.2417 18.2765 14.141 18.4419C14.072 18.5551 13.8194 18.9518 13.4048 19.2565C12.6844 19.7859 11.856 19.7573 11.6054 19.7452C11.34 19.7324 10.5998 19.6986 9.96961 19.175C9.55779 18.833 9.37221 18.431 9.1517 17.9532C9.04062 17.7124 8.79819 17.1344 8.66095 16.5684C8.58365 16.2494 8.52755 16.1114 8.41557 15.8353C8.33542 15.6377 8.29509 15.5687 8.25199 15.5095C8.07123 15.2616 7.81792 15.1568 7.67945 15.1022C7.16662 14.8998 6.84289 14.8367 6.37079 14.6949C5.69037 14.4905 5.33932 14.314 5.14392 14.2061C4.89445 14.0686 4.75132 13.9614 4.65317 13.8803C4.29868 13.5873 4.1176 13.2906 4.08063 13.2287C4.00906 13.1088 3.90739 12.9143 3.83525 12.6585C3.74038 12.3219 3.74659 12.0567 3.75346 11.7624C3.75706 11.6084 3.76426 11.3551 3.83525 11.0293C3.86617 10.8873 3.93259 10.5817 4.08063 10.2962C4.47437 9.53645 5.29433 9.20989 5.63467 9.07435C5.84307 8.99134 6.09057 8.91567 6.37079 8.82998C7.00737 8.63529 7.1887 8.5856 7.1887 8.5856C7.28137 8.56019 7.45624 8.51303 7.67945 8.42269C7.82627 8.36323 7.91296 8.32755 8.00662 8.25978C8.15171 8.15478 8.24234 8.02436 8.33378 7.85249C8.5655 7.41686 8.69595 6.88462 8.74274 6.71209C8.9837 5.82486 9.06369 5.56843 9.23349 5.24586C9.32657 5.06918 9.41613 4.93021 9.47886 4.83858Z" stroke="white" stroke-width="1.5"/>
</svg>
