<svg width="24" height="24" viewBox="0 0 24 24" fill="none" xmlns="http://www.w3.org/2000/svg">
<path fill-rule="evenodd" clip-rule="evenodd" d="M8.97198 2.45143C9.21081 2.15971 9.85064 1.45983 10.935 1.14812C11.1567 1.08437 11.7797 0.926882 12.5708 1.03951C12.9338 1.09121 13.9874 1.25673 14.7519 2.12561C14.9198 2.31654 15.0094 2.47001 15.1881 2.77726C15.7116 3.67731 15.9408 4.57605 16.0606 5.05806C16.0723 5.10552 16.1858 5.56375 16.3877 6.14416C16.5109 6.49812 16.5795 6.64593 16.7149 6.79581C16.942 7.04703 17.2422 7.17671 17.3692 7.23025C17.5225 7.29488 17.6435 7.32539 17.6964 7.33886C17.6964 7.33886 18.0857 7.43726 19.2232 7.7733C19.7611 7.9322 20.2704 8.0861 20.859 8.42496C21.1465 8.59037 21.3709 8.72179 21.6224 8.968C22.0811 9.41721 22.2849 9.91106 22.3858 10.1627C22.4472 10.316 22.542 10.5806 22.6039 10.923C22.7128 11.5259 22.6585 12.0309 22.6039 12.3349C22.4696 13.0816 22.1565 13.5941 22.0586 13.7468C21.8871 14.0144 21.4391 14.6383 20.6409 15.0501C20.4402 15.1536 20.2162 15.2278 19.7684 15.376C19.305 15.5293 18.8489 15.6803 18.2417 15.8104C18.0529 15.8509 17.6247 15.9375 17.2602 16.1362C17.09 16.229 16.9602 16.3317 16.933 16.3535C16.8502 16.4196 16.7212 16.524 16.6058 16.6793C16.4835 16.844 16.427 16.9978 16.3877 17.1137C16.2027 17.6598 16.0944 18.2401 15.9515 18.7429C15.8979 18.9319 15.7615 19.3869 15.5153 19.9376C15.4091 20.175 15.3225 20.3686 15.1881 20.5892C15.0962 20.7401 14.7593 21.2691 14.2066 21.6753C13.2461 22.3812 12.1416 22.343 11.8074 22.327C11.4535 22.3099 10.4666 22.2647 9.62631 21.5667C9.07722 21.1107 8.82977 20.5747 8.53576 19.9376C8.38766 19.6165 8.06442 18.8459 7.88143 18.0912C7.77837 17.6659 7.70356 17.4819 7.55426 17.1137C7.44739 16.8502 7.39362 16.7582 7.33615 16.6793C7.09514 16.3488 6.75739 16.2091 6.57276 16.1362C5.88899 15.8663 5.45735 15.7823 4.82788 15.5932C3.92065 15.3207 3.45258 15.0853 3.19205 14.9415C2.85943 14.7581 2.66859 14.6152 2.53772 14.5071C2.06508 14.1164 1.82363 13.7208 1.77433 13.6382C1.67891 13.4783 1.54336 13.2191 1.44717 12.8779C1.32066 12.4292 1.32895 12.0755 1.33811 11.6832C1.34291 11.4779 1.35251 11.1402 1.44717 10.7058C1.48839 10.5164 1.57694 10.1089 1.77433 9.72827C2.29933 8.71527 3.3926 8.27985 3.84638 8.09913C4.12426 7.98846 4.45426 7.88756 4.82788 7.7733C5.67666 7.51372 5.91843 7.44747 5.91843 7.44747C6.04199 7.41359 6.27515 7.3507 6.57276 7.23025C6.76852 7.15097 6.88412 7.1034 7.00898 7.01303C7.20245 6.87304 7.32328 6.69915 7.4452 6.46999C7.75416 5.88914 7.9281 5.17949 7.99048 4.94945C8.31176 3.76648 8.41841 3.42458 8.64481 2.99448C8.76892 2.75891 8.88833 2.57362 8.97198 2.45143Z" stroke="#373739" stroke-width="1.5"/>
</svg>
