<?xml version="1.0" encoding="UTF-8"?>
<svg version="1.1" xmlns="http://www.w3.org/2000/svg" width="512" height="512">
<path d="M0 0 C9.66467024 2.80371861 18.99105444 2.43394154 28.92919922 2.16357422 C50.5968128 1.62804946 70.8326069 6.05603519 87.10522461 21.47509766 C95.76260303 30.5962642 101.67060186 41.82507029 104.92651367 53.91845703 C105.32873138 55.40798889 105.32873138 55.40798889 105.73907471 56.9276123 C105.94240417 57.68578247 106.14573364 58.44395264 106.35522461 59.22509766 C107.45832474 59.22874329 108.56142487 59.23238892 109.69795227 59.23614502 C120.12844642 59.27319615 130.55864809 59.33107897 140.98891926 59.4090004 C146.35037211 59.44839436 151.7116627 59.48062243 157.07324219 59.49609375 C162.25410817 59.51131359 167.43452781 59.54585341 172.61519432 59.59340668 C174.58494357 59.60816567 176.55475657 59.6161355 178.52456093 59.61698151 C193.29943048 59.62970112 205.14645113 60.52485076 216.35522461 71.22509766 C225.11090541 80.39689002 227.97153869 90.4069488 227.86315918 102.87597656 C227.87251912 104.55677276 227.87251912 104.55677276 227.88206816 106.27152443 C227.8979284 109.99845513 227.88542061 113.72472547 227.87280273 117.45166016 C227.87822694 120.13492723 227.88520745 122.81814995 227.89404297 125.50140381 C227.91177119 132.01615685 227.90801379 138.53072491 227.89639241 145.04548502 C227.88733581 150.34310319 227.88614368 155.64066975 227.89048767 160.93829346 C227.8911006 161.6940761 227.89171354 162.44985873 227.89234504 163.22854388 C227.89362402 164.76420197 227.89492088 166.29986006 227.89623541 167.83551812 C227.90762451 182.21426377 227.89455378 196.59290718 227.87303394 210.97163606 C227.85516446 223.29250255 227.85826904 235.61321826 227.87670898 247.93408203 C227.89814528 262.2635693 227.90652603 276.59296712 227.89425993 290.92246819 C227.89298582 292.45227939 227.89172833 293.98209062 227.89048767 295.51190186 C227.88956202 296.64076213 227.88956202 296.64076213 227.88861766 297.79242766 C227.88517303 303.07984108 227.89097393 308.36719746 227.90040588 313.65460205 C227.91165798 320.10372376 227.90851875 326.55265088 227.88728291 333.00175047 C227.87681528 336.288299 227.87475258 339.57445919 227.88587952 342.86101532 C227.89685377 346.43240323 227.88304705 350.00288796 227.86315918 353.57421875 C227.87654351 355.11408164 227.87654351 355.11408164 227.89019823 356.68505287 C227.76940416 367.91295154 224.12235633 377.08883493 216.35522461 385.22509766 C206.60591678 394.53209285 196.25865188 396.83906812 183.08105469 396.67919922 C181.80173065 396.67978333 180.52240662 396.68036743 179.20431519 396.68096924 C175.73170541 396.68210648 172.25965999 396.65876043 168.78718019 396.63067341 C165.14507122 396.60549229 161.50294614 396.6033047 157.86076355 396.59857178 C150.97968406 396.58619066 144.09886191 396.55343585 137.21789521 396.51317382 C129.37743884 396.46830359 121.53696951 396.44643093 113.6964165 396.42639208 C97.58253577 396.38469815 81.46891314 396.31444203 65.35522461 396.22509766 C65.74359497 396.99739716 66.13196533 397.76969666 66.53210449 398.56539917 C70.18569421 405.83255775 73.83546339 413.10161924 77.48091888 420.37286186 C79.35536162 424.11129585 81.23129017 427.84896879 83.1105957 431.58496094 C84.92308042 435.18825078 86.73168625 438.7934626 88.5375824 442.40005875 C89.22836078 443.77791098 89.92055044 445.15505659 90.614151 446.53149033 C91.58298418 448.45470687 92.54683656 450.38034091 93.50952148 452.30664062 C94.06023315 453.40362274 94.61094482 454.50060486 95.17834473 455.63082886 C96.35522461 458.22509766 96.35522461 458.22509766 96.35522461 460.22509766 C97.27335937 460.20415039 98.19149414 460.18320312 99.13745117 460.16162109 C102.55177889 460.09335182 105.96537904 460.04325381 109.38012695 460.00537109 C110.85648051 459.98528465 112.3327548 459.95800964 113.80883789 459.92333984 C115.93387423 459.87468581 118.05785695 459.85210093 120.18334961 459.83447266 C121.46113281 459.81352539 122.73891602 459.79257812 124.05541992 459.77099609 C127.35522461 460.22509766 127.35522461 460.22509766 129.77026367 462.12451172 C131.48849282 464.40172115 131.89918932 465.41135612 131.85522461 468.22509766 C131.86553711 468.88509766 131.87584961 469.54509766 131.88647461 470.22509766 C131.04979031 473.37496796 130.03857081 474.30128826 127.35522461 476.22509766 C123.66882787 476.84496941 120.00160695 476.76399315 116.27124023 476.73303223 C115.12725014 476.73927219 113.98326004 476.74551215 112.80460358 476.7519412 C109.62871445 476.76514949 106.45343525 476.76037737 103.27756119 476.74799633 C99.85281348 476.73895826 96.42814919 476.75290934 93.00341797 476.76391602 C86.29420659 476.78171923 79.58517402 476.77785331 72.87595558 476.76626545 C67.42412471 476.75723845 61.97234401 476.75600394 56.52050781 476.76036072 C55.35740137 476.76128012 55.35740137 476.76128012 54.17079782 476.76221809 C52.59566687 476.76349697 51.02053593 476.76479382 49.44540501 476.76610845 C34.66917481 476.77751953 19.8930438 476.76439231 5.11682987 476.74290699 C-7.56677574 476.72503551 -20.25023492 476.72813947 -32.93383789 476.74658203 C-47.65654156 476.76797947 -62.37915825 476.77642084 -77.10187531 476.76413298 C-78.67126972 476.76285876 -80.24066415 476.76160127 -81.81005859 476.76036072 C-82.58226667 476.75974362 -83.35447474 476.75912651 -84.15008307 476.75849071 C-89.59649586 476.75503442 -95.04285355 476.76087215 -100.48925781 476.77027893 C-107.12503029 476.78148781 -113.76061347 476.77848246 -120.39636421 476.75715595 C-123.7832392 476.74663034 -127.16979836 476.74254895 -130.55667114 476.75575256 C-134.22502963 476.76662694 -137.89249028 476.75304119 -141.56079102 476.73303223 C-142.63587669 476.74195511 -143.71096237 476.750878 -144.8186264 476.76007128 C-152.0051901 476.6836446 -152.0051901 476.6836446 -155.30432129 474.31835175 C-156.74776283 472.0642724 -157.18628726 470.8818576 -157.14477539 468.22509766 C-157.15508789 467.56509766 -157.16540039 466.90509766 -157.17602539 466.22509766 C-156.38421012 463.24414605 -155.06034818 462.12493149 -152.64477539 460.22509766 C-149.3449707 459.77099609 -149.3449707 459.77099609 -145.47290039 459.83447266 C-144.79048279 459.84013245 -144.10806519 459.84579224 -143.40496826 459.85162354 C-141.23417777 459.87394129 -139.06506333 459.92412258 -136.89477539 459.97509766 C-135.41953889 459.9951689 -133.9442764 460.01341859 -132.46899414 460.02978516 C-128.86038038 460.07378885 -125.25274158 460.14278183 -121.64477539 460.22509766 C-121.37436432 459.35895844 -121.10395325 458.49281921 -120.8253479 457.60043335 C-119.67593589 454.3141876 -118.31701862 451.32895592 -116.75561523 448.21972656 C-116.17516449 447.05897614 -115.59471375 445.89822571 -114.99667358 444.70230103 C-114.36643964 443.4520439 -113.73611736 442.2018313 -113.10571289 440.95166016 C-112.45803402 439.66003678 -111.81071068 438.36823507 -111.16372681 437.07626343 C-109.4674072 433.69122735 -107.76629483 430.30862245 -106.06414795 426.92651367 C-104.3250825 423.46891292 -102.59059528 420.00901738 -100.85571289 416.54931641 C-97.45652505 409.77233203 -94.05226692 402.99791139 -90.64477539 396.22509766 C-91.3097746 396.22878483 -91.97477381 396.232472 -92.65992451 396.2362709 C-108.878473 396.32480217 -125.09694444 396.39089458 -141.3156786 396.43234634 C-149.15910867 396.45292752 -157.00237694 396.48096246 -164.84570312 396.52685547 C-171.68596486 396.56686007 -178.52610935 396.59256274 -185.36648482 396.60145164 C-188.98483059 396.6066435 -192.60284109 396.61875191 -196.22107887 396.64801788 C-200.27106911 396.68050707 -204.32048515 396.6810484 -208.37060547 396.67919922 C-209.55600418 396.69358032 -210.74140289 396.70796143 -211.96272278 396.72277832 C-223.73758301 396.66483368 -233.06755149 393.41318474 -241.64477539 385.22509766 C-250.40045619 376.05330529 -253.26108947 366.04324652 -253.15270996 353.57421875 C-253.15894992 352.45368795 -253.16518989 351.33315716 -253.17161894 350.17867088 C-253.18747918 346.45174019 -253.1749714 342.72546985 -253.16235352 338.99853516 C-253.16777773 336.31526808 -253.17475823 333.63204536 -253.18359375 330.9487915 C-253.20132197 324.43403846 -253.19756457 317.9194704 -253.18594319 311.40471029 C-253.17688659 306.10709212 -253.17569446 300.80952556 -253.18003845 295.51190186 C-253.18095785 294.3782279 -253.18095785 294.3782279 -253.18189582 293.22165143 C-253.1831748 291.68599334 -253.18447166 290.15033526 -253.18578619 288.61467719 C-253.19717529 274.23593154 -253.18410456 259.85728813 -253.16258472 245.47855926 C-253.14471524 233.15769276 -253.14781982 220.83697705 -253.16625977 208.51611328 C-253.18769606 194.18662601 -253.19607681 179.8572282 -253.18381071 165.52772713 C-253.1825366 163.99791592 -253.18127911 162.46810469 -253.18003845 160.93829346 C-253.17942135 160.18571994 -253.17880425 159.43314643 -253.17816845 158.65776765 C-253.17472381 153.37035423 -253.18052471 148.08299785 -253.18995667 142.79559326 C-253.20120876 136.34647156 -253.19806953 129.89754444 -253.17683369 123.44844484 C-253.16636606 120.16189631 -253.16430336 116.87573612 -253.1754303 113.58917999 C-253.18640455 110.01779209 -253.17259783 106.44730735 -253.15270996 102.87597656 C-253.16163285 101.8494013 -253.17055573 100.82282604 -253.17974901 99.76514244 C-253.05895494 88.53724377 -249.41190711 79.36136039 -241.64477539 71.22509766 C-229.09172553 59.24156234 -215.49663274 59.66930077 -199.13305664 59.83447266 C-196.95159934 59.84194366 -194.77013527 59.84763253 -192.58866882 59.85162354 C-186.87904965 59.86681213 -181.16984491 59.90603512 -175.46038818 59.95043945 C-169.62151697 59.99153892 -163.78257804 60.00966578 -157.94360352 60.02978516 C-146.51047987 60.07253628 -135.07766225 60.14070481 -123.64477539 60.22509766 C-123.50378418 58.98018555 -123.36279297 57.73527344 -123.2175293 56.45263672 C-121.31467348 39.65096354 -110.27850088 23.85684505 -97.64477539 13.22509766 C-94.12082294 10.57119691 -90.52584928 8.31750271 -86.64477539 6.22509766 C-85.79657227 5.76619141 -84.94836914 5.30728516 -84.07446289 4.83447266 C-59.7366002 -7.22548319 -25.7507066 -7.54479302 0 0 Z M-93.45727539 33.10009766 C-107.78222351 50.80969938 -110.73120276 73.06703245 -109.64477539 95.22509766 C-109.354952 96.89987862 -109.03987885 98.57198479 -108.64477539 100.22509766 C-80.6539848 101.00954781 -51.5188441 98.79028542 -25.64477539 87.22509766 C-24.63286133 86.78552734 -23.62094727 86.34595703 -22.57836914 85.89306641 C-12.44332443 81.19444415 -4.1747141 74.56897319 2.91772461 65.95166016 C6.77044025 61.32421365 6.77044025 61.32421365 11.04272461 60.60009766 C17.37210699 60.84353544 20.93910685 65.70946017 25.06225586 70.00244141 C29.72865154 74.82183367 34.74100544 78.558496 40.35522461 82.22509766 C41.13768555 82.75232422 41.92014648 83.27955078 42.72631836 83.82275391 C54.50929822 91.38785263 70.14205718 96.89146901 84.35522461 95.22509766 C86.69820572 94.59317329 89.03366095 93.93166051 91.35522461 93.22509766 C91.69141447 81.18088039 91.86823566 69.85928001 88.35522461 58.22509766 C88.02651367 57.12939453 87.69780273 56.03369141 87.35913086 54.90478516 C82.96871802 42.05257317 75.19133654 32.00262233 63.35522461 25.22509766 C59.75429814 23.54298655 56.19711231 22.23691163 52.35522461 21.22509766 C51.39072388 20.95366943 51.39072388 20.95366943 50.40673828 20.67675781 C41.26253539 18.44010233 31.80740423 19.14814092 22.46923828 19.41699219 C12.17856921 19.69309126 3.01337462 18.91161617 -6.94555664 16.21777344 C-35.22027945 8.63032472 -72.52233996 10.42440173 -93.45727539 33.10009766 Z M-231.18383789 85.01416016 C-236.36886879 92.6249365 -236.94502103 101.12752644 -236.88528442 110.11500549 C-236.88699327 111.07007946 -236.88870212 112.02515344 -236.89046276 113.00916904 C-236.89373893 116.18742443 -236.88278491 119.36546546 -236.87182617 122.54370117 C-236.87126165 124.83071386 -236.87157941 127.1177269 -236.87271118 129.40473938 C-236.87328411 135.59825569 -236.86153946 141.79169426 -236.84756327 147.98519254 C-236.83504592 154.46342654 -236.83388461 160.94166239 -236.83151245 167.41990662 C-236.82600604 178.28833397 -236.81352052 189.15673268 -236.7956543 200.02514648 C-236.77727687 211.21622577 -236.76312949 222.40729733 -236.75463867 233.59838867 C-236.75411322 234.28900713 -236.75358778 234.9796256 -236.75304641 235.69117189 C-236.7504362 239.15604066 -236.74790882 242.62090949 -236.7454226 246.08577836 C-236.72471248 274.79890784 -236.68785482 303.51199238 -236.64477539 332.22509766 C-212.88477539 332.22509766 -189.12477539 332.22509766 -164.64477539 332.22509766 C-164.47509522 320.48521957 -164.47509522 320.48521957 -164.34692383 308.74487305 C-163.89233212 280.41540772 -153.5801572 257.19363174 -133.53149414 237.10791016 C-118.45273112 222.93883485 -97.24941054 213.59060206 -76.45727539 212.91259766 C-72.67927749 212.64968101 -70.86053186 212.09370668 -68.26977539 209.28759766 C-64.16942831 203.52334162 -60.8048724 197.23557638 -59.64477539 190.22509766 C-61.07756836 189.51546875 -61.07756836 189.51546875 -62.53930664 188.79150391 C-82.71838665 178.57487841 -96.66820428 163.63691597 -104.35620117 142.24560547 C-107.03589499 134.03171665 -108.32389567 125.84071812 -108.64477539 117.22509766 C-109.4762207 117.11552734 -110.30766602 117.00595703 -111.16430664 116.89306641 C-112.25098633 116.73451172 -113.33766602 116.57595703 -114.45727539 116.41259766 C-115.5362207 116.26177734 -116.61516602 116.11095703 -117.72680664 115.95556641 C-120.75374703 115.19781828 -121.83593062 114.70700095 -123.64477539 112.22509766 C-126.40195568 103.95355678 -125.70768388 94.39232906 -125.67211914 85.75244141 C-125.67014526 84.83265503 -125.66817139 83.91286865 -125.6661377 82.96520996 C-125.66102986 80.71849246 -125.6538657 78.47180197 -125.64477539 76.22509766 C-136.83271235 76.1786583 -148.0206262 76.1431696 -159.2086401 76.12147331 C-164.40426487 76.11105766 -169.59982346 76.09693908 -174.79541016 76.07421875 C-179.81396188 76.05241114 -184.83245014 76.04051235 -189.85104561 76.03534317 C-191.76109376 76.0316616 -193.67113863 76.02447255 -195.58115959 76.01363754 C-198.26642102 75.9990173 -200.95142362 75.99712409 -203.63671875 75.99804688 C-204.41787552 75.99085632 -205.19903229 75.98366577 -206.00386047 75.97625732 C-215.36306239 76.01082396 -224.80074372 77.5942182 -231.18383789 85.01416016 Z M108.35522461 76.22509766 C108.33540527 76.95623779 108.31558594 77.68737793 108.29516602 78.44067383 C108.19969547 81.76500035 108.09010494 85.08871752 107.98022461 88.41259766 C107.94928711 89.56308594 107.91834961 90.71357422 107.88647461 91.89892578 C107.84780273 93.01074219 107.80913086 94.12255859 107.76928711 95.26806641 C107.72215576 96.79983521 107.72215576 96.79983521 107.67407227 98.36254883 C107.33932816 101.36781272 106.76672023 103.55227175 105.35522461 106.22509766 C98.50777632 109.6488218 90.81899635 110.74701926 83.35522461 112.22509766 C83.31655273 113.80484375 83.31655273 113.80484375 83.27709961 115.41650391 C82.58880351 135.25658097 76.96725099 154.29124227 63.35522461 169.22509766 C62.26467773 170.45292969 62.26467773 170.45292969 61.15209961 171.70556641 C53.37426639 179.99774021 44.52117708 185.24865086 34.35522461 190.22509766 C35.28942514 196.30289638 38.17196812 201.04375894 41.35522461 206.22509766 C41.7406543 206.87736328 42.12608398 207.52962891 42.52319336 208.20166016 C44.91297361 211.34163033 46.82374738 212.12667595 50.73022461 212.85009766 C52.7663891 213.0938134 54.80296472 213.29430735 56.8449707 213.48266602 C79.99079647 215.70510507 102.37237586 228.77307543 117.35522461 246.22509766 C133.28507824 266.58828806 138.88527642 288.81063921 139.10522461 314.28759766 C139.18772461 320.20697266 139.27022461 326.12634766 139.35522461 332.22509766 C163.11522461 332.22509766 186.87522461 332.22509766 211.35522461 332.22509766 C211.39933797 302.82286591 211.43625768 273.42065529 211.45735527 244.01839891 C211.4598566 240.54506211 211.46244525 237.07172537 211.46508789 233.59838867 C211.46561251 232.90692684 211.46613713 232.21546501 211.46667765 231.50304978 C211.47537384 220.31556163 211.49113949 209.1280941 211.5095302 197.94061816 C211.52825112 186.45625884 211.53919632 174.97191399 211.5434016 163.48753971 C211.54600837 157.03904667 211.55213315 150.59060034 211.56668472 144.14212227 C211.58027403 138.07079803 211.58444448 131.99953968 211.58143997 125.92820168 C211.58198953 123.70181164 211.58595889 121.47541938 211.59363556 119.24904251 C211.60361781 116.20428308 211.60118144 113.15977091 211.59573364 110.11500549 C211.60155933 109.23852106 211.60738501 108.36203663 211.61338723 107.45899206 C211.57101925 98.66995592 210.43882565 89.95950253 204.35522461 83.22509766 C196.44260323 77.05593523 189.17769801 76.06184544 179.30859375 76.11157227 C178.53703949 76.11142624 177.76548523 76.11128021 176.97055054 76.11112976 C174.44379778 76.11182128 171.91712059 76.11957772 169.39038086 76.12744141 C167.6291864 76.12930829 165.86799143 76.13073092 164.10679626 76.13172913 C159.48890734 76.13553298 154.87105025 76.14534493 150.25317383 76.15643311 C145.53393993 76.16669319 140.81470084 76.17123657 136.09545898 76.17626953 C126.84870026 76.18696924 117.60196509 76.20401988 108.35522461 76.22509766 Z M11.35522461 81.22509766 C10.94014648 81.69818359 10.52506836 82.17126953 10.09741211 82.65869141 C-15.13646631 109.74023875 -56.93911414 114.27802475 -91.64477539 117.22509766 C-92.1476477 133.83023106 -85.72856199 148.0209283 -74.64477539 160.22509766 C-66.75022583 168.23364793 -58.32323075 173.60832233 -47.64477539 177.03759766 C-47.00467529 177.24473389 -46.3645752 177.45187012 -45.70507812 177.6652832 C-35.75336669 180.64439399 -25.42816547 180.41152726 -15.13305664 180.41040039 C-12.9128073 180.41257995 -10.69306193 180.43077961 -8.47290039 180.44970703 C13.71086952 180.53898921 32.38744897 176.21810657 49.10522461 161.03759766 C62.30019994 146.72662938 67.07611581 130.30599031 67.35522461 111.22509766 C66.33944336 110.92216797 65.32366211 110.61923828 64.27709961 110.30712891 C46.02330026 104.79133599 31.11278334 97.44179301 16.56225586 85.07275391 C14.2936047 83.10545518 14.2936047 83.10545518 11.35522461 81.22509766 Z M-43.64477539 195.22509766 C-45.29477539 199.51509766 -46.94477539 203.80509766 -48.64477539 208.22509766 C-51.95727539 213.91259766 -51.95727539 213.91259766 -53.50805664 216.29931641 C-54.81421449 218.13944785 -54.81421449 218.13944785 -54.64477539 220.22509766 C-52.22200956 222.08050693 -49.7886373 223.82061549 -47.26977539 225.53759766 C-45.71433321 226.61463358 -44.15967238 227.69279861 -42.60571289 228.77197266 C-41.38706543 229.61598633 -41.38706543 229.61598633 -40.14379883 230.47705078 C-35.2539474 233.89746268 -30.44180388 237.42647611 -25.6237793 240.94702148 C-23.64100942 242.38807432 -21.64496302 243.80838838 -19.64477539 245.22509766 C-18.33766602 246.18222656 -18.33766602 246.18222656 -17.00415039 247.15869141 C-13.64995587 248.6747429 -12.14863677 248.37313506 -8.64477539 247.22509766 C-5.71674551 245.48977263 -3.03825627 243.47274286 -0.33227539 241.41259766 C1.25815273 240.23194274 2.84931806 239.05228033 4.44116211 237.87353516 C5.25037109 237.26993164 6.05958008 236.66632813 6.89331055 236.04443359 C10.81552845 233.14594412 14.80205986 230.34071398 18.79272461 227.53759766 C19.5079126 227.03317139 20.22310059 226.52874512 20.95996094 226.0090332 C23.74045551 224.04999483 26.52482788 222.11202881 29.35522461 220.22509766 C28.43911236 216.04712254 26.5244832 212.57226025 24.48022461 208.85009766 C23.77375467 207.55102107 23.06801584 206.25154659 22.36303711 204.95166016 C22.04995605 204.38012207 21.736875 203.80858398 21.41430664 203.21972656 C20.01273135 200.58006079 18.69180597 197.89826038 17.35522461 195.22509766 C-2.77477539 195.22509766 -22.90477539 195.22509766 -43.64477539 195.22509766 Z M-76.64477539 229.22509766 C-76.64477539 239.78509766 -76.64477539 250.34509766 -76.64477539 261.22509766 C-71.69477539 263.20509766 -71.69477539 263.20509766 -66.64477539 265.22509766 C-59.68438299 269.95291136 -55.95775191 276.25639794 -53.64477539 284.22509766 C-53.23985901 288.94840221 -53.32026575 293.67359522 -53.33227539 298.41259766 C-53.31616211 299.69585937 -53.30004883 300.97912109 -53.28344727 302.30126953 C-53.28280273 303.5278125 -53.2821582 304.75435547 -53.28149414 306.01806641 C-53.27851318 307.13721436 -53.27553223 308.2563623 -53.27246094 309.40942383 C-53.64477539 312.22509766 -53.64477539 312.22509766 -55.04638672 314.08813477 C-57.03794977 315.50476973 -58.21589482 315.62769857 -60.64477539 315.60009766 C-61.66571289 315.61169922 -61.66571289 315.61169922 -62.70727539 315.62353516 C-65.24489266 315.10168644 -66.03192254 314.23163016 -67.64477539 312.22509766 C-68.02954102 310.19140625 -68.02954102 310.19140625 -68.05102539 307.87353516 C-68.08389648 306.59542969 -68.08389648 306.59542969 -68.11743164 305.29150391 C-68.12645508 304.40333984 -68.13547852 303.51517578 -68.14477539 302.60009766 C-68.16504287 291.35885018 -68.16504287 291.35885018 -73.09619141 281.59765625 C-77.84832841 277.54908613 -81.0392395 276.86908206 -87.10571289 276.94775391 C-90.86937941 277.3588621 -92.86267727 278.70796126 -95.64477539 281.22509766 C-101.43944528 288.58589455 -100.8957647 296.12298921 -101.07446289 305.09619141 C-101.12086914 306.40136719 -101.12086914 306.40136719 -101.16821289 307.73291016 C-101.18803223 308.5232666 -101.20785156 309.31362305 -101.22827148 310.12792969 C-101.74177528 312.71350858 -102.59083169 313.61925275 -104.64477539 315.22509766 C-106.58227539 315.62353516 -106.58227539 315.62353516 -108.64477539 315.60009766 C-109.66571289 315.61169922 -109.66571289 315.61169922 -110.70727539 315.62353516 C-113.30015671 315.09032166 -114.04573517 314.33392045 -115.64477539 312.22509766 C-116.30379443 307.73620243 -116.10766943 303.1942789 -116.08227539 298.66259766 C-116.11224609 296.80538086 -116.11224609 296.80538086 -116.14282227 294.91064453 C-116.13806662 285.9272249 -114.87915801 278.23507036 -109.39477539 270.91259766 C-104.2812851 265.91532305 -99.44119112 263.49056957 -92.64477539 261.22509766 C-92.64477539 251.65509766 -92.64477539 242.08509766 -92.64477539 232.22509766 C-114.42518058 240.145245 -130.880865 253.56473522 -141.01977539 274.66259766 C-149.677911 293.49252895 -148.64477539 311.45626581 -148.64477539 332.22509766 C-58.88477539 332.22509766 30.87522461 332.22509766 123.35522461 332.22509766 C123.35522461 299.86553348 121.55690512 273.60791264 98.35522461 250.22509766 C89.1623774 241.6262498 78.97946048 236.87479201 67.35522461 232.22509766 C67.35522461 241.79509766 67.35522461 251.36509766 67.35522461 261.22509766 C70.65522461 262.54509766 73.95522461 263.86509766 77.35522461 265.22509766 C84.23380919 269.89734379 88.1828452 276.27572699 90.35522461 284.22509766 C91.32342 294.98782778 90.76748846 304.57177139 84.10522461 313.53759766 C76.33642307 321.12983553 68.20394158 323.62867464 57.47485352 323.59301758 C48.67576467 323.37995724 41.53125563 320.54475731 35.35522461 314.22509766 C28.48706779 304.98465269 27.18658451 295.46575813 28.35522461 284.22509766 C30.40849258 275.54587847 34.851783 269.61214729 42.41772461 264.91259766 C45.54882573 263.07446279 47.77283704 262.12069455 51.35522461 261.22509766 C51.35522461 250.66509766 51.35522461 240.10509766 51.35522461 229.22509766 C45.49721294 229.04946997 45.49721294 229.04946997 41.17553711 231.64697266 C40.04160522 232.43454956 40.04160522 232.43454956 38.88476562 233.23803711 C38.09126709 233.81126709 37.29776855 234.38449707 36.48022461 234.97509766 C35.64740967 235.56057373 34.81459473 236.1460498 33.95654297 236.74926758 C27.86459596 241.05959104 21.89281702 245.527639 15.94384766 250.03222656 C-4.72268395 265.65206613 -4.72268395 265.65206613 -16.64477539 264.22509766 C-26.72348778 261.41627617 -34.9208627 254.83735755 -43.14477539 248.60009766 C-49.28147 243.95548842 -55.47265815 239.40039558 -61.76977539 234.97509766 C-62.56319336 234.40194824 -63.35661133 233.82879883 -64.17407227 233.23828125 C-64.93010742 232.71314941 -65.68614258 232.18801758 -66.46508789 231.64697266 C-67.12782715 231.1787207 -67.79056641 230.71046875 -68.47338867 230.22802734 C-71.15397908 228.80578058 -71.15397908 228.80578058 -76.64477539 229.22509766 Z M45.98022461 283.85009766 C43.77614568 288.42780005 43.5580607 292.23062176 44.35522461 297.22509766 C46.68491392 302.06368314 49.51663913 304.89540835 54.35522461 307.22509766 C59.3497005 308.02226156 63.15252222 307.80417659 67.73022461 305.60009766 C71.31430174 302.3573612 73.95057702 299.76033869 74.73803711 294.82666016 C74.9940638 289.14286772 74.29149392 285.57571111 70.35522461 281.22509766 C66.00461116 277.28882834 62.43745455 276.58625847 56.75366211 276.84228516 C51.81998357 277.62974525 49.22296106 280.26602052 45.98022461 283.85009766 Z M-236.64477539 348.22509766 C-236.64477539 357.80912845 -236.09378451 365.72853375 -229.64477539 373.22509766 C-220.2207598 381.33222024 -208.15479815 380.51471054 -196.4375 380.47906494 C-194.78622519 380.48137136 -193.13495142 380.4845491 -191.48367977 380.48851943 C-186.96073183 380.49685117 -182.43786853 380.49274952 -177.91492033 380.48654699 C-173.03141939 380.48201688 -168.14793288 380.48900904 -163.26443481 380.49450684 C-153.7034256 380.50339649 -144.14244779 380.50148072 -134.58143735 380.49568155 C-126.81046367 380.4911634 -119.03949879 380.49055283 -111.26852417 380.49272919 C-109.6090343 380.49318889 -109.6090343 380.49318889 -107.91601938 380.49365787 C-105.66848476 380.49429733 -103.42095015 380.49494575 -101.17341554 380.49560305 C-80.10205583 380.5013051 -59.03071352 380.49475042 -37.95935667 380.48400232 C-19.88215679 380.47506693 -1.80498261 380.47661901 16.2722168 380.48583984 C37.2685752 380.49654469 58.26491835 380.50075579 79.26127911 380.49461532 C81.50051053 380.49397822 83.73974196 380.49334948 85.97897339 380.49272919 C87.0806962 380.49242064 88.18241901 380.49211208 89.31752735 380.49179418 C97.0784794 380.49006789 104.83942177 380.49298094 112.60037231 380.49768829 C122.05934303 380.50329949 131.51828056 380.50177561 140.97724748 380.49112681 C145.8026285 380.48587335 150.6279542 380.48380785 155.45333481 380.49042511 C159.87229527 380.49639335 164.29114922 380.49309497 168.71010005 380.48247001 C170.30688398 380.4802397 171.90367693 380.48136397 173.50045502 380.48622158 C188.88728426 380.81107757 188.88728426 380.81107757 202.35522461 374.22509766 C210.28187395 366.24142206 211.35522461 359.45727402 211.35522461 348.22509766 C63.51522461 348.22509766 -84.32477539 348.22509766 -236.64477539 348.22509766 Z M-71.64477539 396.22509766 C-76.75977539 406.41384766 -81.87477539 416.60259766 -87.14477539 427.10009766 C-88.76319336 430.31872559 -90.38161133 433.53735352 -92.04907227 436.85351562 C-93.4932695 439.73522212 -93.4932695 439.73522212 -94.93640137 442.61746216 C-95.58076419 443.90311234 -96.22671352 445.18796809 -96.87390137 446.47219849 C-97.85268003 448.41517214 -98.8264286 450.36059023 -99.79907227 452.30664062 C-100.34978394 453.40362274 -100.90049561 454.50060486 -101.46789551 455.63082886 C-102.7824834 458.05386716 -102.7824834 458.05386716 -102.64477539 460.22509766 C-43.24477539 460.22509766 16.15522461 460.22509766 77.35522461 460.22509766 C75.90754374 455.88205504 74.4920054 452.25399157 72.46606445 448.21972656 C71.87752686 447.04289307 71.28898926 445.86605957 70.68261719 444.65356445 C70.06057226 443.41954253 69.43842149 442.18557396 68.81616211 440.95166016 C68.24808838 439.81752686 67.68001465 438.68339355 67.09472656 437.51489258 C64.97760769 433.29109512 62.85350055 429.07080335 60.73022461 424.85009766 C55.98647461 415.40384766 51.24272461 405.95759766 46.35522461 396.22509766 C7.41522461 396.22509766 -31.52477539 396.22509766 -71.64477539 396.22509766 Z " fill="#000000" transform="translate(268.644775390625,19.77490234375)"/>
</svg>
