<svg width="24" height="24" viewBox="0 0 24 24" fill="none" xmlns="http://www.w3.org/2000/svg">
<path d="M21.0037 10.9999V9.82816C21.0037 9.27564 20.5558 8.82774 20.0033 8.82774H15.1726V3.997C15.1726 3.44448 14.7247 2.99658 14.1721 2.99658H9.82779C9.27528 2.99658 8.82737 3.44448 8.82737 3.997V8.82774H3.99663C3.44412 8.82774 2.99622 9.27564 2.99622 9.82816V14.1725C2.99622 14.725 3.44412 15.1729 3.99663 15.1729H8.82737V20.0037C8.82737 20.5562 9.27528 21.0041 9.82779 21.0041H12" stroke="#373739" stroke-width="1.5" stroke-linecap="round" stroke-linejoin="round"/>
<path fill-rule="evenodd" clip-rule="evenodd" d="M18.0022 17.0024V17.0024C19.6598 17.0024 21.0035 18.3461 21.0035 20.0037V20.0037C21.0035 20.5562 20.5556 21.0041 20.0031 21.0041H16.0014C15.4489 21.0041 15.001 20.5562 15.001 20.0037V20.0037C15.001 18.3461 16.3447 17.0024 18.0022 17.0024Z" stroke="#373739" stroke-width="1.5" stroke-linecap="round" stroke-linejoin="round"/>
<path d="M18.2526 14.0015C18.2525 14.1395 18.1405 14.2513 18.0024 14.2513C17.8644 14.2512 17.7525 14.1393 17.7524 14.0013C17.7524 13.8632 17.8642 13.7513 18.0022 13.7511C18.0686 13.751 18.1324 13.7774 18.1794 13.8243C18.2264 13.8713 18.2527 13.9351 18.2526 14.0015" stroke="#373739" stroke-width="1.5" stroke-linecap="round" stroke-linejoin="round"/>
<path d="M21.2539 15.0015C21.2537 15.1395 21.1417 15.2513 21.0036 15.2513C20.8656 15.2512 20.7537 15.1393 20.7536 15.0013C20.7536 14.8632 20.8654 14.7513 21.0034 14.7511C21.0699 14.751 21.1336 14.7774 21.1806 14.8243C21.2276 14.8713 21.2539 14.9351 21.2539 15.0015" stroke="#373739" stroke-width="1.5" stroke-linecap="round" stroke-linejoin="round"/>
<path d="M15.2513 15.0015C15.2511 15.1395 15.1391 15.2513 15.0011 15.2513C14.863 15.2512 14.7511 15.1393 14.7511 15.0013C14.751 14.8632 14.8628 14.7513 15.0009 14.7511C15.0673 14.751 15.131 14.7774 15.178 14.8243C15.225 14.8713 15.2514 14.9351 15.2513 15.0015" stroke="#373739" stroke-width="1.5" stroke-linecap="round" stroke-linejoin="round"/>
</svg>
