<svg width="19" height="18" viewBox="0 0 19 18" fill="none" xmlns="http://www.w3.org/2000/svg">
<path fill-rule="evenodd" clip-rule="evenodd" d="M16.25 9V9C16.25 12.7282 13.2282 15.75 9.5 15.75V15.75C5.77175 15.75 2.75 12.7283 2.75 9V9C2.75 5.27175 5.77175 2.25 9.5 2.25V2.25C13.2282 2.25 16.25 5.27175 16.25 9Z" stroke="#535355" stroke-width="1.40625" stroke-linecap="round" stroke-linejoin="round"/>
<path d="M9.21875 9.00075C9.21875 9.156 9.34475 9.282 9.5 9.2805C9.65525 9.2805 9.78125 9.1545 9.78125 8.99925C9.78125 8.844 9.65525 8.718 9.5 8.718C9.34475 8.71875 9.21875 8.84475 9.21875 9.00075" stroke="#535355" stroke-width="1.40625" stroke-linecap="round" stroke-linejoin="round"/>
<path d="M9.21875 6.00075C9.21875 6.156 9.34475 6.282 9.5 6.2805C9.65525 6.2805 9.78125 6.1545 9.78125 5.99925C9.78125 5.844 9.65525 5.718 9.5 5.718C9.34475 5.71875 9.21875 5.84475 9.21875 6.00075" stroke="#535355" stroke-width="1.40625" stroke-linecap="round" stroke-linejoin="round"/>
<path d="M9.21875 12.0007C9.21875 12.156 9.34475 12.282 9.5 12.2805C9.65525 12.2805 9.78125 12.1545 9.78125 11.9992C9.78125 11.844 9.65525 11.718 9.5 11.718C9.34475 11.7187 9.21875 11.8447 9.21875 12.0007" stroke="#535355" stroke-width="1.40625" stroke-linecap="round" stroke-linejoin="round"/>
</svg>
