<svg width="25" height="26" viewBox="0 0 25 26" fill="none" xmlns="http://www.w3.org/2000/svg">
<path fill-rule="evenodd" clip-rule="evenodd" d="M9.95812 21.0497L10.2973 20.7106C10.7502 20.2576 11.3645 20.0032 12.005 20.0032V20.0032C12.6456 20.0032 13.2599 20.2577 13.7129 20.7106L14.052 21.0497C14.663 21.6608 15.4918 22.004 16.3559 22.004H16.7501C18.5496 22.004 20.0084 20.5452 20.0084 18.7457V18.7457C20.0084 17.6563 19.4639 16.639 18.5575 16.0347V16.0347C17.5376 15.3548 16.6881 14.4491 16.0747 13.3879L15.1544 11.7958C14.5117 10.6839 13.3248 9.99902 12.0405 9.99902V9.99902C10.7772 9.99902 9.60651 10.6619 8.95652 11.7452L7.92634 13.4621C7.31835 14.4755 6.49292 15.3411 5.50966 15.9966L5.45263 16.0347C4.54618 16.639 4.00171 17.6563 4.00171 18.7457V18.7457C4.00171 20.5452 5.4605 22.004 7.26001 22.004H7.65417C8.51832 22.004 9.34707 21.6607 9.95812 21.0497V21.0497Z" stroke="#373739" stroke-width="1.5" stroke-linecap="round" stroke-linejoin="round"/>
<circle cx="4.50185" cy="10.4992" r="1.50063" stroke="#373739" stroke-width="1.5" stroke-linecap="round" stroke-linejoin="round"/>
<circle cx="19.5081" cy="10.4992" r="1.50063" stroke="#373739" stroke-width="1.5" stroke-linecap="round" stroke-linejoin="round"/>
<circle cx="8.78932" cy="5.49721" r="1.50063" stroke="#373739" stroke-width="1.5" stroke-linecap="round" stroke-linejoin="round"/>
<circle cx="15.2206" cy="5.49721" r="1.50063" stroke="#373739" stroke-width="1.5" stroke-linecap="round" stroke-linejoin="round"/>
</svg>
