<svg width="24" height="24" viewBox="0 0 24 24" fill="none" xmlns="http://www.w3.org/2000/svg">
<path d="M21.0037 9.49897V6.49772C21.0037 5.11643 19.884 3.99667 18.5027 3.99667H5.49729C4.116 3.99667 2.99625 5.11643 2.99625 6.49772V9.99917" stroke="#323232" stroke-width="1.5" stroke-linecap="round" stroke-linejoin="round"/>
<path d="M21.0038 14.501V17.5023C21.0038 18.8836 19.884 20.0033 18.5027 20.0033H15.0013" stroke="#323232" stroke-width="1.5" stroke-linecap="round" stroke-linejoin="round"/>
<path fill-rule="evenodd" clip-rule="evenodd" d="M18.5027 9.49896H21.0037C21.5563 9.49896 22.0042 9.94686 22.0042 10.4994V13.5006C22.0042 14.0531 21.5563 14.501 21.0037 14.501H18.5027C17.1214 14.501 16.0017 13.3813 16.0017 12V12C16.0017 10.6187 17.1214 9.49896 18.5027 9.49896V9.49896Z" stroke="#323232" stroke-width="1.5" stroke-linecap="round" stroke-linejoin="round"/>
<path d="M12 16.0017H1.99582" stroke="#323232" stroke-width="1.5" stroke-linecap="round" stroke-linejoin="round"/>
<path fill-rule="evenodd" clip-rule="evenodd" d="M9.99915 13.0004H3.99665C2.89162 13.0004 1.99582 13.8962 1.99582 15.0013V19.0029C1.99582 20.108 2.89162 21.0038 3.99665 21.0038H9.99915C11.1042 21.0038 12 20.108 12 19.0029V15.0013C12 13.8962 11.1042 13.0004 9.99915 13.0004Z" stroke="#323232" stroke-width="1.5" stroke-linecap="round" stroke-linejoin="round"/>
</svg>
