<svg width="24" height="24" viewBox="0 0 24 24" fill="none" xmlns="http://www.w3.org/2000/svg">
<path fill-rule="evenodd" clip-rule="evenodd" d="M9.97171 19.9424C4.52205 19.9424 0 15.4206 0 9.97119C0 4.52179 4.52205 -6.10352e-05 9.97171 -6.10352e-05C15.4214 -6.10352e-05 19.9434 4.52179 19.9434 9.97119C19.9434 12.2302 19.1663 14.3298 17.8682 16.014L23.6523 21.7977C24.1161 22.2615 24.1161 23.0731 23.6523 23.6528C23.4204 23.8847 23.0725 24.0007 22.7247 24.0007C22.3768 24.0007 22.029 23.8847 21.7971 23.6528L16.0128 17.8688C14.3289 19.166 12.2299 19.9424 9.97171 19.9424ZM9.97326 2.55071C5.915 2.55071 2.55245 5.91311 2.55245 9.97118C2.55245 14.0292 5.915 17.3916 9.97326 17.3916C14.0315 17.3916 17.3941 14.0292 17.3941 9.97118C17.3941 5.91311 14.0315 2.55071 9.97326 2.55071Z" fill="#373739"/>
</svg>
