<svg width="16" height="10" viewBox="0 0 16 10" fill="none" xmlns="http://www.w3.org/2000/svg">
<path d="M4.404 9.108C3.836 9.108 3.336 9.036 2.904 8.892C2.472 8.74 2.108 8.516 1.812 8.22C1.524 7.924 1.304 7.556 1.152 7.116C1 6.676 0.924 6.168 0.924 5.592V1.08C0.924 0.872 0.976 0.715999 1.08 0.611999C1.192 0.508 1.348 0.456 1.548 0.456C1.748 0.456 1.9 0.508 2.004 0.611999C2.116 0.715999 2.172 0.872 2.172 1.08V5.568C2.172 6.392 2.36 7.008 2.736 7.416C3.12 7.824 3.676 8.028 4.404 8.028C5.14 8.028 5.696 7.824 6.072 7.416C6.448 7.008 6.636 6.392 6.636 5.568V1.08C6.636 0.872 6.688 0.715999 6.792 0.611999C6.904 0.508 7.056 0.456 7.248 0.456C7.448 0.456 7.6 0.508 7.704 0.611999C7.808 0.715999 7.86 0.872 7.86 1.08V5.592C7.86 6.36 7.728 7.008 7.464 7.536C7.208 8.056 6.824 8.448 6.312 8.712C5.8 8.976 5.164 9.108 4.404 9.108ZM10.4448 9.084C10.2368 9.084 10.0728 9.028 9.95278 8.916C9.84078 8.804 9.78478 8.64 9.78478 8.424V1.212C9.78478 0.995999 9.84078 0.831999 9.95278 0.719999C10.0728 0.599999 10.2408 0.539999 10.4568 0.539999H14.7288C14.9048 0.539999 15.0328 0.584 15.1128 0.672C15.2008 0.752 15.2448 0.872 15.2448 1.032C15.2448 1.2 15.2008 1.328 15.1128 1.416C15.0328 1.504 14.9048 1.548 14.7288 1.548H11.0328V4.248H14.4888C14.6488 4.248 14.7728 4.292 14.8608 4.38C14.9568 4.46 15.0048 4.58 15.0048 4.74C15.0048 4.908 14.9568 5.036 14.8608 5.124C14.7728 5.212 14.6488 5.256 14.4888 5.256H11.0328V8.424C11.0328 8.864 10.8368 9.084 10.4448 9.084Z" fill="#76767A"/>
</svg>
