<svg width="24" height="24" viewBox="0 0 24 24" fill="none" xmlns="http://www.w3.org/2000/svg">
<path fill-rule="evenodd" clip-rule="evenodd" d="M20.2 6.6002L16.9 9.9002L18.7 18.8002C18.8 19.1002 18.7 19.5002 18.4 19.7002L17.7 20.4002C17.2 20.9002 16.3 20.7002 16.1 20.1002L13.5 13.4002L10.1 16.8002L10.3 19.0002C10.3 19.3002 10.2 19.6002 10 19.8002L8.90005 20.9002L6.80005 17.4002L3.30005 15.3002L4.30005 14.0002C4.50005 13.8002 4.80005 13.7002 5.10005 13.7002L7.30005 13.9002L10.7 10.5002L3.90005 7.9002C3.30005 7.6002 3.10005 6.8002 3.60005 6.3002L4.30005 5.6002C4.50005 5.4002 4.90005 5.3002 5.20005 5.3002L14.1 7.1002L17.4 3.8002C18.2 3.0002 19.4 3.0002 20.2 3.8002V3.8002C21 4.6002 21 5.8002 20.2 6.6002V6.6002Z" stroke="#373739" stroke-width="1.5" stroke-linecap="round" stroke-linejoin="round"/>
</svg>
