<svg width="24" height="24" viewBox="0 0 24 24" fill="none" xmlns="http://www.w3.org/2000/svg">
<path fill-rule="evenodd" clip-rule="evenodd" d="M20.2 6.59995L16.9 9.89995L18.7 18.8C18.8 19.1 18.7 19.5 18.4 19.7L17.7 20.4C17.2 20.9 16.3 20.7 16.1 20.1L13.5 13.4L10.1 16.8L10.3 19C10.3 19.3 10.2 19.6 9.99999 19.8L8.89999 20.9L6.79999 17.4L3.29999 15.3L4.29999 14C4.49999 13.8 4.79999 13.7 5.09999 13.7L7.29999 13.9L10.7 10.5L3.89999 7.89995C3.29999 7.59995 3.09999 6.79995 3.59999 6.29995L4.29999 5.59995C4.49999 5.39995 4.89999 5.29995 5.19999 5.29995L14.1 7.09995L17.4 3.79995C18.2 2.99995 19.4 2.99995 20.2 3.79995V3.79995C21 4.59995 21 5.79995 20.2 6.59995V6.59995Z" stroke="#088E82" stroke-width="1.5" stroke-linecap="round" stroke-linejoin="round"/>
</svg>
