<?xml version="1.0" encoding="UTF-8"?>
<svg version="1.1" xmlns="http://www.w3.org/2000/svg" width="512" height="512">
<path d="M0 0 C19.68070546 16.13897182 34.41098367 38.13189535 42.3125 62.3125 C42.54267822 62.99699219 42.77285645 63.68148437 43.01000977 64.38671875 C47.60456936 79.32114347 48.47647995 94.88627315 48.46875 110.3984375 C48.47587733 112.17534618 48.48357992 113.95225263 48.49182129 115.72915649 C48.50510862 119.40804511 48.50690114 123.08671944 48.50097656 126.765625 C48.49501502 131.47432086 48.52600753 136.18200878 48.56609344 140.89050865 C48.59191342 144.53996301 48.59485459 148.18917005 48.59120178 151.83870316 C48.59289027 153.57623509 48.60250666 155.31377877 48.62034607 157.05121994 C48.64248434 159.46763103 48.63287154 161.88193606 48.61523438 164.29833984 C48.62849762 165.00792343 48.64176086 165.71750702 48.65542603 166.44859314 C48.59149413 170.21853599 48.06627209 171.91308795 45.75598145 174.94290161 C42.88762308 177.08387951 41.78665659 177.62431857 38.2890625 177.61523438 C36.93240479 177.6291925 36.93240479 177.6291925 35.54833984 177.64343262 C34.10128662 177.61883972 34.10128662 177.61883972 32.625 177.59375 C31.12187256 177.59381042 31.12187256 177.59381042 29.58837891 177.59387207 C27.47356888 177.58852 25.35875915 177.57095075 23.24414062 177.54199219 C20.01109898 177.50014367 16.78014181 177.50092483 13.546875 177.5078125 C11.48956889 177.49731931 9.43227349 177.48438051 7.375 177.46875 C6.41029785 177.46854858 5.4455957 177.46834717 4.45166016 177.46813965 C-4.17185286 177.31642543 -4.17185286 177.31642543 -8 174 C-9.16290832 170.51127504 -9.1446124 167.38181069 -9.1418457 163.75317383 C-9.14705734 162.64989998 -9.14705734 162.64989998 -9.15237427 161.52433777 C-9.15972782 159.92509021 -9.16507534 158.32583247 -9.16866493 156.72657204 C-9.17585624 154.18048096 -9.19154881 151.63457976 -9.21000671 149.08854675 C-9.2623063 141.84820384 -9.31029683 134.60795877 -9.32592773 127.36743164 C-9.33612164 122.93520754 -9.36574133 118.50345355 -9.40724754 114.07141685 C-9.41941517 112.39607013 -9.42470539 110.7206565 -9.42244911 109.04526711 C-9.40816295 94.9561467 -10.95049167 81.26721513 -17.75 68.625 C-18.26542358 67.6359668 -18.26542358 67.6359668 -18.79125977 66.62695312 C-28.16071853 49.19818082 -43.81921412 37.13465934 -62.515625 30.96484375 C-82.89897827 25.3205744 -103.51826835 27.83276339 -122 38 C-140.31774556 49.22848074 -151.53976967 65.68818391 -157.25 86.1875 C-158.90015349 94.57578024 -159.21533818 103.09961626 -159.5625 111.625 C-159.60568359 112.62917969 -159.64886719 113.63335937 -159.69335938 114.66796875 C-159.79809859 117.11188383 -159.90027256 119.55587617 -160 122 C-158.83984375 121.97679687 -157.6796875 121.95359375 -156.484375 121.9296875 C-139.74565959 121.68712346 -123.30137778 123.0831935 -110.51171875 135.29296875 C-100.74250615 146.32435352 -95.84227438 158.38148489 -95.85955811 173.08169556 C-95.85510142 174.27724959 -95.85510142 174.27724959 -95.8505547 175.49695623 C-95.84190597 178.15895162 -95.8403627 180.82090184 -95.83886719 183.48291016 C-95.83423625 185.39533585 -95.82921122 187.30776062 -95.82382202 189.22018433 C-95.81072138 194.41055153 -95.80425746 199.6009058 -95.79981136 204.79128695 C-95.79687649 208.0374179 -95.79277087 211.28354535 -95.78830719 214.52967453 C-95.77463757 224.69581956 -95.76496865 234.86195656 -95.7611053 245.02811015 C-95.75662763 256.74502583 -95.73909092 268.46182469 -95.7101047 280.17870486 C-95.68845249 289.24730593 -95.67839911 298.31587422 -95.67706418 307.38450086 C-95.67601857 312.79512299 -95.67016284 318.20563521 -95.65224457 323.61623001 C-95.63570294 328.71013988 -95.63363787 333.80385794 -95.64238358 338.89778519 C-95.64315073 340.76009639 -95.63885398 342.62241817 -95.62892532 344.48470306 C-95.5429671 361.62233013 -97.3944408 376.33625337 -109.75 389.3125 C-120.15423503 399.12487735 -131.14667847 403.48150194 -145.38497925 403.38768005 C-146.38144348 403.39306559 -147.37790772 403.39845113 -148.40456784 403.40399987 C-151.7175943 403.41821826 -155.03021775 403.41119076 -158.34326172 403.40405273 C-160.72918009 403.4097595 -163.11509572 403.41672495 -165.50100708 403.42485046 C-171.29363672 403.44090568 -177.08614165 403.44288928 -182.87878881 403.43763756 C-187.59051031 403.43358477 -192.30219985 403.43505254 -197.01391983 403.44038582 C-197.6862884 403.44113424 -198.35865697 403.44188266 -199.05140034 403.44265376 C-200.41762423 403.44418535 -201.78384812 403.4457237 -203.15007199 403.44726873 C-215.94267862 403.46097514 -228.73522398 403.45556929 -241.52782919 403.44408352 C-253.21062745 403.43415407 -264.89326726 403.44709008 -276.57604109 403.47101771 C-288.59524396 403.49544739 -300.61437316 403.50500704 -312.63360035 403.49836498 C-319.3721427 403.49488121 -326.11056329 403.49704886 -332.84908676 403.51461601 C-339.18739219 403.53011504 -345.52539579 403.52609636 -351.86368942 403.50731087 C-354.18396447 403.50363318 -356.50426203 403.50670939 -358.8245163 403.51719666 C-374.80233111 403.58387634 -386.83138957 402.92417018 -400 393 C-400.86625 392.4225 -401.7325 391.845 -402.625 391.25 C-411.46472832 382.87552054 -417.69429481 370.55224305 -418.13142776 358.32324791 C-418.13949809 356.86748524 -418.14212751 355.41168616 -418.14044189 353.9559021 C-418.14341302 353.15084783 -418.14638414 352.34579356 -418.1494453 351.51634371 C-418.15811022 348.82126935 -418.15963869 346.12623952 -418.16113281 343.43115234 C-418.16576261 341.49754746 -418.17078749 339.56394349 -418.17617798 337.63034058 C-418.18928991 332.37799981 -418.1957448 327.12567182 -418.20018864 321.87331724 C-418.20312181 318.58950981 -418.20722712 315.30570586 -418.21169281 312.02190018 C-418.22536567 301.74095755 -418.23503289 291.46002288 -418.2388947 281.17907178 C-418.24337257 269.32403541 -418.26090884 257.46911449 -418.2898953 245.61411321 C-418.31153887 236.44278872 -418.32160044 227.27149664 -418.32293582 218.10014689 C-418.32398209 212.6263851 -418.32985186 207.15273187 -418.34775543 201.67899704 C-418.36428196 196.52600832 -418.36636938 191.37320924 -418.35761642 186.2202034 C-418.35684845 184.33489726 -418.36115691 182.44958074 -418.37107468 180.56430054 C-418.45464814 163.67963097 -416.37086873 148.92724991 -404.29296875 136.1015625 C-390.33144535 123.30548143 -374.79260204 121.84003759 -356.77148438 121.88647461 C-355.23337811 121.88675702 -353.69527171 121.88659769 -352.15716553 121.8860321 C-348.0007351 121.88574624 -343.84433377 121.8916088 -339.68791008 121.89860606 C-335.3370669 121.90487479 -330.98622298 121.90544618 -326.63537598 121.90663147 C-318.40496519 121.90973443 -310.17456776 121.91793382 -301.94416285 121.92798096 C-292.57051784 121.9391743 -283.19687219 121.94466066 -273.82322216 121.94967639 C-254.54880722 121.96011733 -235.27440468 121.97769667 -216 122 C-216.00621872 121.02044342 -216.01243744 120.04088684 -216.0188446 119.03164673 C-216.04053555 115.35522784 -216.05404313 111.67881446 -216.06523132 108.00234985 C-216.07115847 106.41904749 -216.07922798 104.83575151 -216.08958435 103.25247192 C-216.16008567 92.18747506 -215.8934772 81.75056163 -213 71 C-212.68289062 69.73929687 -212.36578125 68.47859375 -212.0390625 67.1796875 C-202.99768702 33.74995232 -180.586772 5.6280036 -151 -12 C-141.14594955 -17.62399551 -130.96525857 -22.00899325 -120 -25 C-119.31115723 -25.19609863 -118.62231445 -25.39219727 -117.91259766 -25.59423828 C-77.15562752 -36.78798957 -32.68423099 -26.13987333 0 0 Z M-117 -9 C-118.81757813 -8.45666016 -118.81757813 -8.45666016 -120.671875 -7.90234375 C-149.59411419 1.57772354 -173.8314648 22.90448027 -188.015625 49.703125 C-192.53852678 58.71295638 -195.67399746 68.20176884 -198 78 C-198.18981445 78.77835205 -198.37962891 79.5567041 -198.57519531 80.35864258 C-200.41246382 88.92851188 -200.22480804 97.47689471 -200.125 106.1875 C-200.11494397 107.72720768 -200.10582279 109.26692176 -200.09765625 110.80664062 C-200.0775841 114.5380525 -200.03840253 118.26855438 -200 122 C-192.08 122 -184.16 122 -176 122 C-175.90203125 119.73125 -175.8040625 117.4625 -175.703125 115.125 C-175.59434277 112.86729986 -175.48003344 110.60994038 -175.36523438 108.35253906 C-175.28982787 106.81309619 -175.21994552 105.27337032 -175.15625 103.73339844 C-174.56811618 89.67332439 -172.66072107 76.00517665 -166.3125 63.25 C-165.97001221 62.54665527 -165.62752441 61.84331055 -165.2746582 61.11865234 C-154.150976 39.0423828 -134.96184274 24.12478014 -112 16 C-87.95142145 8.87449525 -62.52169232 11.30657104 -40.1875 22.75 C-17.17419062 36.26012461 -2.65030094 56.32128043 4.2734375 81.87890625 C5.54486124 87.34055986 6.13442444 92.49587692 6.20532227 98.10693359 C6.21522186 98.79055969 6.22512146 99.47418579 6.23532104 100.17852783 C6.26668763 102.41846355 6.29159419 104.65842042 6.31640625 106.8984375 C6.33699729 108.45928471 6.3579943 110.0201266 6.37937927 111.58096313 C6.43437805 115.67437421 6.4838845 119.76783375 6.53222656 123.86132812 C6.58260441 128.04431432 6.63820519 132.22723079 6.69335938 136.41015625 C6.8006692 144.60671328 6.90169054 152.80333007 7 161 C15.25 161 23.5 161 32 161 C32.0683224 152.29712804 32.12312666 143.59444002 32.15543652 134.89135838 C32.17095926 130.84828632 32.19194577 126.8054104 32.22631836 122.76245117 C32.25939846 118.84610563 32.27695305 114.92994629 32.28463173 111.0134716 C32.29008951 109.5342612 32.30074068 108.05505864 32.31719017 106.57592964 C32.46418615 92.78415902 30.94093077 79.10167114 26.375 66 C26.12339111 65.2663623 25.87178223 64.53272461 25.61254883 63.77685547 C20.88039573 50.58546771 13.90409012 38.79041441 5 28 C4.35417969 27.20207031 3.70835937 26.40414062 3.04296875 25.58203125 C-2.01458569 19.59743017 -7.79179247 14.75466388 -14 10 C-15.16982422 9.08927734 -15.16982422 9.08927734 -16.36328125 8.16015625 C-26.31661938 0.78297623 -37.55948394 -4.40395556 -49.25 -8.375 C-49.94544922 -8.61355713 -50.64089844 -8.85211426 -51.35742188 -9.09790039 C-71.94474214 -15.73409741 -96.4196194 -15.4485899 -117 -9 Z M-393.75 148.78125 C-402.62297045 159.60627395 -402.5816496 171.61085814 -402.51757812 184.8828125 C-402.52300641 186.77789852 -402.53013302 188.67298031 -402.53881836 190.5680542 C-402.55697057 195.68791916 -402.55001775 200.80745977 -402.53730202 205.92733002 C-402.52713223 211.30068293 -402.53657871 216.6740092 -402.54284668 222.04736328 C-402.55011152 231.0687353 -402.54056592 240.08997606 -402.52148438 249.11132812 C-402.49971794 259.52186413 -402.50677013 269.93208671 -402.52879 280.34261513 C-402.54697716 289.3017729 -402.54948612 298.26083666 -402.53903532 307.22000694 C-402.53281862 312.56178292 -402.53191444 317.90341186 -402.54518127 323.24517822 C-402.55678748 328.26865465 -402.54862722 333.29172935 -402.52560425 338.31516266 C-402.52034257 340.15208522 -402.52178708 341.98904193 -402.53065491 343.82595062 C-402.58660687 356.59957511 -402.1412235 367.57153229 -392.78515625 377.28515625 C-392.19605469 377.85105469 -391.60695313 378.41695312 -391 379 C-390.50371094 379.49371094 -390.00742187 379.98742187 -389.49609375 380.49609375 C-382.85110951 386.59789127 -375.5901279 387.44532762 -367.00738525 387.40113831 C-366.02896408 387.40793498 -365.0505429 387.41473164 -364.0424726 387.42173427 C-360.77853119 387.440657 -357.51496661 387.43827258 -354.25097656 387.43579102 C-351.90475992 387.44477163 -349.55854771 387.45498057 -347.21234131 387.46632385 C-340.84855214 387.49279776 -334.48488403 387.49985625 -328.12104511 387.50177121 C-323.47398523 387.50426383 -318.82695217 387.51296693 -314.17990176 387.52228064 C-301.67515504 387.54717768 -289.17047227 387.55840965 -276.66570166 387.55627144 C-275.95649863 387.55615157 -275.24729559 387.5560317 -274.51660156 387.5559082 C-273.80652575 387.55578556 -273.09644995 387.55566292 -272.36485669 387.55553656 C-260.86292826 387.55431779 -249.36129473 387.58301542 -237.85945156 387.6253233 C-226.03014958 387.66848998 -214.20099119 387.68912972 -202.3716085 387.68654197 C-195.73804734 387.68554862 -189.10475792 387.69426592 -182.47126007 387.72607613 C-176.2297279 387.75519023 -169.98884713 387.75530903 -163.74729156 387.73352623 C-161.46248418 387.73039741 -159.17763574 387.73742573 -156.89289856 387.7556076 C-142.63622804 387.86167279 -132.26279751 387.48407146 -121.0625 377.75 C-114.00738404 369.98764748 -111.84735165 361.39983481 -111.85955811 351.17695618 C-111.85658698 350.39569766 -111.85361586 349.61443914 -111.8505547 348.80950612 C-111.84189217 346.19501466 -111.84036152 343.58056912 -111.83886719 340.96606445 C-111.83423725 339.08994957 -111.82921235 337.21383563 -111.82382202 335.33772278 C-111.8107122 330.24246895 -111.80425572 325.14722829 -111.79981136 320.05196023 C-111.79687811 316.86665626 -111.7927728 313.68135586 -111.78830719 310.4960537 C-111.77463545 300.52426206 -111.76496744 290.55247864 -111.7611053 280.58067828 C-111.75662642 269.08050355 -111.73908502 257.58044778 -111.7101047 246.08030921 C-111.68846683 237.18415723 -111.67839988 228.28803867 -111.67706418 219.39186066 C-111.67601759 214.08189104 -111.67014079 208.7720333 -111.65224457 203.46209145 C-111.63572771 198.46423067 -111.63362594 193.46656545 -111.64238358 188.46868706 C-111.64315204 186.63940023 -111.63883653 184.81010273 -111.62892532 182.98084259 C-111.56101768 169.66100686 -111.97605001 158.78329593 -121.3125 148.4375 C-134.07207763 136.86485982 -147.74269896 137.56185141 -164.1875 137.61181641 C-166.43725845 137.60774685 -168.68701489 137.60240282 -170.93676758 137.59588623 C-177.02348771 137.58225263 -183.11005466 137.58749499 -189.19677734 137.59702349 C-195.57910563 137.60464057 -201.96142117 137.59756879 -208.34375 137.59286499 C-219.74552016 137.58706463 -231.14720578 137.59636351 -242.54896164 137.611643 C-252.86861296 137.62504465 -263.18816301 137.62271608 -273.5078125 137.60888672 C-285.51683575 137.59280076 -297.52578261 137.58687281 -309.53482056 137.59572351 C-315.88261342 137.60039066 -322.23033666 137.60105123 -328.578125 137.59111404 C-334.54705722 137.58242195 -340.51579896 137.58850739 -346.48471069 137.60579681 C-348.66994918 137.60974966 -350.85520381 137.60864831 -353.04043579 137.60200882 C-375.28263544 137.40840067 -375.28263544 137.40840067 -393.75 148.78125 Z " fill="#000000" transform="translate(441,69)"/>
<path d="M0 0 C9.12573056 9.93907553 12.03284981 20.13121448 11.53125 33.48828125 C10.62305704 43.9064028 5.59137363 52.98675137 -1.80859375 60.38671875 C-1.91111031 62.26244417 -1.94430997 64.141993 -1.95043945 66.02050781 C-1.95747391 67.22555969 -1.96450836 68.43061157 -1.97175598 69.67218018 C-1.9780024 71.64236115 -1.9780024 71.64236115 -1.984375 73.65234375 C-1.9947945 75.00657942 -2.00621624 76.36080773 -2.01860046 77.71502686 C-2.07111249 83.47746355 -2.11901871 89.2397708 -2.13452148 95.00244141 C-2.14461936 98.5246329 -2.17399309 102.04621729 -2.21584129 105.56816864 C-2.23410621 107.56052364 -2.23150484 109.5530346 -2.22859192 111.54547119 C-2.24508286 112.76313171 -2.26157379 113.98079224 -2.27856445 115.23535156 C-2.28736382 116.83966034 -2.28736382 116.83966034 -2.29634094 118.47637939 C-2.94334679 122.15231158 -4.12394107 123.82018955 -6.80859375 126.38671875 C-9.0090332 127.02163696 -9.0090332 127.02163696 -11.421875 127.03369141 C-12.3296167 127.04945221 -13.2373584 127.06521301 -14.17260742 127.08145142 C-15.14560791 127.07133026 -16.1186084 127.06120911 -17.12109375 127.05078125 C-18.62990112 127.0579567 -18.62990112 127.0579567 -20.16918945 127.0652771 C-22.294124 127.0686769 -24.41911078 127.05946896 -26.54394531 127.03857422 C-29.79740978 127.01181075 -33.04742415 127.03832033 -36.30078125 127.0703125 C-38.36589304 127.06700842 -40.43100267 127.06060222 -42.49609375 127.05078125 C-43.46909424 127.0609024 -44.44209473 127.07102356 -45.44458008 127.08145142 C-46.80619263 127.05781021 -46.80619263 127.05781021 -48.1953125 127.03369141 C-48.99155029 127.02971344 -49.78778809 127.02573547 -50.6081543 127.02163696 C-53.95915247 126.05473475 -55.01673554 124.31029509 -56.80859375 121.38671875 C-57.2804718 118.52348328 -57.2804718 118.52348328 -57.2434082 115.34643555 C-57.24053299 114.15136887 -57.23765778 112.95630219 -57.23469543 111.72502136 C-57.21396469 110.44162369 -57.19323395 109.15822601 -57.171875 107.8359375 C-57.16907839 106.49461656 -57.16905745 105.15328724 -57.17167664 103.81196594 C-57.17817163 98.13345692 -57.13797022 92.45570349 -57.07299805 86.77758789 C-57.0350806 83.29606918 -57.03151189 79.81581055 -57.04802513 76.3341465 C-57.04689901 74.37765722 -57.00669848 72.42131473 -56.96565247 70.46525574 C-56.99884156 64.39088924 -57.12922151 60.38068862 -61.24731445 55.70532227 C-62.43335676 54.59799453 -63.62031584 53.49164711 -64.80859375 52.38671875 C-66.55078125 49.33984375 -66.55078125 49.33984375 -67.68359375 46.63671875 C-68.26753906 45.28320312 -68.26753906 45.28320312 -68.86328125 43.90234375 C-72.56607261 34.04863452 -72.2448121 21.38528685 -68.0625 11.73828125 C-61.82170306 0.03435677 -52.4217815 -7.60551458 -39.80859375 -11.61328125 C-25.25582779 -15.44577763 -10.50779197 -10.20419606 0 0 Z M-48.1171875 11.48046875 C-53.64424792 17.70958072 -55.2374838 23.99732236 -55.1484375 32.1796875 C-54.41547884 39.09645828 -51.30911326 44.40483199 -46.05859375 48.88671875 C-45.16914063 49.551875 -45.16914063 49.551875 -44.26171875 50.23046875 C-42.80859375 51.38671875 -42.80859375 51.38671875 -41.80859375 53.38671875 C-41.68901901 55.20389959 -41.63134695 57.0252971 -41.60327148 58.84619141 C-41.58332626 59.98722321 -41.56338104 61.128255 -41.54283142 62.30386353 C-41.52611893 63.54034637 -41.50940643 64.77682922 -41.4921875 66.05078125 C-41.4714064 67.31312592 -41.45062531 68.57547058 -41.42921448 69.87606812 C-41.37481449 73.2330392 -41.32459139 76.59002064 -41.27636719 79.94708252 C-41.22614333 83.3723294 -41.17046189 86.79748704 -41.11523438 90.22265625 C-41.00797512 96.94394161 -40.90672365 103.66529416 -40.80859375 110.38671875 C-33.54859375 110.38671875 -26.28859375 110.38671875 -18.80859375 110.38671875 C-18.80448486 108.68620361 -18.80037598 106.98568848 -18.79614258 105.23364258 C-18.77672125 99.60556198 -18.7343772 93.97796401 -18.67650318 88.3501482 C-18.64225907 84.93899107 -18.61712744 81.5282805 -18.61303711 78.11694336 C-18.60792733 74.19214025 -18.56279459 70.26828202 -18.515625 66.34375 C-18.51955765 65.12275101 -18.5234903 63.90175201 -18.52754211 62.64375305 C-18.36508118 53.20856701 -18.36508118 53.20856701 -15.37255859 50.20361328 C-14.5264502 49.60403809 -13.6803418 49.00446289 -12.80859375 48.38671875 C-6.86728614 41.42613489 -4.22339131 35.53136574 -4.4375 26.26171875 C-5.43051865 18.56843743 -9.59627567 12.5868333 -15.5546875 7.79296875 C-26.56952864 0.92062419 -38.88493742 2.67719191 -48.1171875 11.48046875 Z " fill="#000000" transform="translate(213.80859375,274.61328125)"/>
</svg>
