<svg width="28" height="23" viewBox="0 0 28 23" fill="none" xmlns="http://www.w3.org/2000/svg">
<path fill-rule="evenodd" clip-rule="evenodd" d="M10 12C12.7614 12 15 9.76142 15 7C15 4.23858 12.7614 2 10 2C7.23858 2 5 4.23858 5 7C5 9.76142 7.23858 12 10 12ZM10 4C11.6569 4 13 5.34315 13 7C13 8.65685 11.6569 10 10 10C8.34315 10 7 8.65685 7 7C7 5.34315 8.34315 4 10 4Z" fill="#088E82"/>
<path fill-rule="evenodd" clip-rule="evenodd" d="M21 8C23.2091 8 25 6.20914 25 4C25 1.79086 23.2091 0 21 0C18.7909 0 17 1.79086 17 4C17 6.20914 18.7909 8 21 8ZM21 2C22.1046 2 23 2.89543 23 4C23 5.10457 22.1046 6 21 6C19.8954 6 19 5.10457 19 4C19 2.89543 19.8954 2 21 2Z" fill="#088E82"/>
<path fill-rule="evenodd" clip-rule="evenodd" d="M9.9999 13C4.4899 13 -0.000100025 16.81 -0.000100025 21.5C-0.0100578 21.6965 -0.0100578 21.8935 -0.000100025 22.09C0.046603 22.6069 0.480935 23.0021 0.9999 23H18.9999C19.5189 23.0021 19.9532 22.6069 19.9999 22.09C20.0099 21.8935 20.0099 21.6965 19.9999 21.5C19.9999 16.81 15.5099 13 9.9999 13ZM1.9999 21C2.3199 17.65 5.7799 15 9.9999 15C14.2199 15 17.6599 17.65 17.9999 21H1.9999Z" fill="#088E82"/>
<path fill-rule="evenodd" clip-rule="evenodd" d="M20.5498 8.99999C18.5719 8.9957 16.6757 9.78878 15.2898 11.2C14.9005 11.5921 14.9027 12.2256 15.2948 12.615C15.687 13.0043 16.3205 13.0021 16.7098 12.61C17.7206 11.5778 19.1052 10.9972 20.5498 11C23.3832 11.014 25.7423 13.1783 25.9998 16H21.3898C20.8375 16 20.3898 16.4477 20.3898 17C20.3898 17.5523 20.8375 18 21.3898 18H26.9998C27.5259 18.0013 27.963 17.5948 27.9998 17.07C27.9998 16.91 27.9998 16.73 27.9998 16.56C28.0276 12.4162 24.6936 9.033 20.5498 8.99999Z" fill="#088E82"/>
</svg>
